<svg width="24" height="24" viewBox="0 0 24 24" fill="none" xmlns="http://www.w3.org/2000/svg">
<path d="M19.4129 4.38503C18.7016 3.6771 17.7402 3.27746 16.7367 3.27246H7.08637C4.66295 3.27246 3.27345 4.66277 3.27345 7.08538V19.1262C3.27255 19.3874 3.34464 19.6437 3.48161 19.8662C3.61858 20.0887 3.81497 20.2685 4.04864 20.3853C4.28231 20.5021 4.54398 20.5514 4.80414 20.5275C5.06429 20.5036 5.3126 20.4075 5.52106 20.25L6.89371 19.2225C6.93336 19.1927 6.98248 19.1783 7.03194 19.182C7.0814 19.1857 7.12784 19.2072 7.16262 19.2426L8.49675 20.5839C8.6272 20.7159 8.78259 20.8206 8.95388 20.892C9.12518 20.9634 9.30895 21 9.49453 20.9997C9.67942 21.0003 9.86258 20.9641 10.0334 20.8935C10.2043 20.8228 10.3594 20.7189 10.4899 20.5879L11.8385 19.2394C11.8722 19.2059 11.9169 19.1858 11.9643 19.1829C12.0117 19.1799 12.0585 19.1943 12.0961 19.2233L13.468 20.25C13.6767 20.4065 13.9249 20.5018 14.1847 20.5253C14.4445 20.5487 14.7057 20.4993 14.9391 20.3826C15.1724 20.266 15.3687 20.0866 15.5058 19.8647C15.643 19.6428 15.7156 19.3871 15.7156 19.1262V11.701H17.8629C18.2188 11.7217 18.575 11.6668 18.9082 11.5399C19.2414 11.4131 19.544 11.2172 19.796 10.9651C20.0481 10.713 20.244 10.4105 20.3708 10.0773C20.4977 9.74412 20.5526 9.38788 20.5319 9.03198V7.08538C20.5315 6.07255 20.129 5.10131 19.4129 4.38503ZM14.721 4.56323C14.683 4.64742 14.6505 4.73404 14.6239 4.82251C14.6046 4.88352 14.5822 4.94212 14.5685 5.00553C14.5359 5.15079 14.5182 5.29899 14.5155 5.44783C14.5155 5.45907 14.5115 5.46951 14.5115 5.47994V19.1262C14.5123 19.1636 14.5022 19.2005 14.4826 19.2324C14.4629 19.2643 14.4345 19.2898 14.4008 19.306C14.3674 19.3232 14.3298 19.3305 14.2924 19.3271C14.255 19.3237 14.2194 19.3097 14.1896 19.2867L12.825 18.2641C12.5558 18.0591 12.2215 17.9587 11.8839 17.9814C11.5463 18.0041 11.2285 18.1485 10.9892 18.3877L9.64062 19.7362C9.62162 19.7552 9.59908 19.7701 9.57429 19.7803C9.5495 19.7905 9.52294 19.7957 9.49613 19.7956H9.49453C9.46772 19.7957 9.44116 19.7905 9.41637 19.7803C9.39157 19.7701 9.36903 19.7552 9.35004 19.7362L8.01592 18.3973C7.7755 18.1572 7.45677 18.0114 7.11786 17.9867C6.77895 17.9619 6.44242 18.0598 6.16966 18.2625L4.79621 19.2891C4.76751 19.3128 4.73244 19.3274 4.69542 19.3311C4.65841 19.3349 4.62113 19.3275 4.5883 19.31C4.55402 19.2934 4.52529 19.2672 4.50563 19.2345C4.48596 19.2019 4.4762 19.1643 4.47753 19.1262V7.08538C4.47753 5.30575 5.30674 4.47654 7.08637 4.47654H14.7531C14.7395 4.50383 14.7339 4.53514 14.721 4.56323ZM19.3278 9.03198C19.3485 9.22944 19.3249 9.42903 19.2585 9.61617C19.1922 9.80331 19.085 9.97328 18.9446 10.1137C18.8042 10.2541 18.6342 10.3613 18.4471 10.4276C18.2599 10.4939 18.0603 10.5176 17.8629 10.4969H15.7156V5.48716C15.7169 5.21938 15.8239 4.96294 16.0133 4.77366C16.2027 4.58439 16.4593 4.4776 16.727 4.47654C17.4172 4.47867 18.0783 4.75459 18.5652 5.24373C19.052 5.73287 19.3249 6.39523 19.3238 7.08538L19.3278 9.03198ZM8.89249 12.7108C8.89249 12.5512 8.95592 12.398 9.06882 12.2851C9.18172 12.1722 9.33486 12.1088 9.49453 12.1088H11.9027C12.0624 12.1088 12.2155 12.1722 12.3284 12.2851C12.4413 12.398 12.5047 12.5512 12.5047 12.7108C12.5047 12.8705 12.4413 13.0236 12.3284 13.1365C12.2155 13.2495 12.0624 13.3129 11.9027 13.3129H9.49453C9.33486 13.3129 9.18172 13.2495 9.06882 13.1365C8.95592 13.0236 8.89249 12.8705 8.89249 12.7108ZM8.89249 9.49996C8.89249 9.34029 8.95592 9.18716 9.06882 9.07425C9.18172 8.96135 9.33486 8.89792 9.49453 8.89792H11.9027C12.0624 8.89792 12.2155 8.96135 12.3284 9.07425C12.4413 9.18716 12.5047 9.34029 12.5047 9.49996C12.5047 9.65963 12.4413 9.81276 12.3284 9.92567C12.2155 10.0386 12.0624 10.102 11.9027 10.102H9.49453C9.33486 10.102 9.18172 10.0386 9.06882 9.92567C8.95592 9.81276 8.89249 9.65963 8.89249 9.49996ZM7.06148 8.69724C7.22024 8.69724 7.37544 8.74432 7.50745 8.83252C7.63946 8.92073 7.74234 9.0461 7.8031 9.19277C7.86385 9.33945 7.87975 9.50085 7.84878 9.65656C7.8178 9.81228 7.74135 9.95531 7.62909 10.0676C7.51683 10.1798 7.3738 10.2563 7.21808 10.2873C7.06237 10.3182 6.90097 10.3023 6.75429 10.2416C6.60762 10.1808 6.48225 10.0779 6.39404 9.94593C6.30584 9.81392 6.25876 9.65872 6.25876 9.49996C6.25876 9.28707 6.34333 9.08289 6.49387 8.93235C6.64441 8.78181 6.84859 8.69724 7.06148 8.69724ZM7.8642 12.7108C7.8642 12.8696 7.81712 13.0248 7.72892 13.1568C7.64072 13.2888 7.51535 13.3917 7.36867 13.4525C7.22199 13.5132 7.06059 13.5291 6.90488 13.4981C6.74917 13.4672 6.60614 13.3907 6.49387 13.2784C6.38161 13.1662 6.30516 13.0232 6.27419 12.8674C6.24321 12.7117 6.25911 12.5503 6.31986 12.4037C6.38062 12.257 6.48351 12.1316 6.61551 12.0434C6.74752 11.9552 6.90272 11.9081 7.06148 11.9081C7.27438 11.9081 7.47855 11.9927 7.62909 12.1432C7.77963 12.2938 7.8642 12.4979 7.8642 12.7108Z" fill="white"/>
</svg>
