<svg width="32" height="33" viewBox="0 0 32 33" fill="none" xmlns="http://www.w3.org/2000/svg">
<path d="M24 3.16699V5.83366M8 3.16699V5.83366" stroke="white" stroke-width="1.5" stroke-linecap="round" stroke-linejoin="round"/>
<path d="M15.9914 17.834H16.0034M15.9914 23.1673H16.0034M21.3188 17.834H21.3307M10.6641 17.834H10.676M10.6641 23.1673H10.676" stroke="white" stroke-width="2" stroke-linecap="round" stroke-linejoin="round"/>
<path d="M4.66406 11.167H27.3307" stroke="white" stroke-width="1.5" stroke-linecap="round" stroke-linejoin="round"/>
<path d="M3.33203 16.8243C3.33203 11.0146 3.33203 8.10971 5.00152 6.30486C6.67101 4.5 9.35802 4.5 14.732 4.5H17.2654C22.6394 4.5 25.3264 4.5 26.9959 6.30486C28.6654 8.10971 28.6654 11.0146 28.6654 16.8243V17.509C28.6654 23.3188 28.6654 26.2236 26.9959 28.0285C25.3264 29.8333 22.6394 29.8333 17.2654 29.8333H14.732C9.35802 29.8333 6.67101 29.8333 5.00152 28.0285C3.33203 26.2236 3.33203 23.3188 3.33203 17.509V16.8243Z" stroke="white" stroke-width="1.5" stroke-linecap="round" stroke-linejoin="round"/>
<path d="M4 11.167H28" stroke="white" stroke-width="1.5" stroke-linecap="round" stroke-linejoin="round"/>
</svg>
