<svg width="85" height="29" viewBox="0 0 85 29" fill="none" xmlns="http://www.w3.org/2000/svg">
<g clip-path="url(#clip0_56861_2242)">
<path d="M22.1172 1.5H25.9869V26.5H22.1172V1.5ZM39.531 18.525C39.531 22.3509 36.4188 22.6561 35.4929 22.6561C33.1798 22.6561 32.759 20.4181 32.759 19.0682V9.5H28.8892V19.0482C28.8892 21.4181 29.609 23.3741 30.8707 24.6783C31.9851 25.8312 33.655 26.4613 35.464 26.4613C36.7468 26.4613 38.5636 26.0482 39.531 25.1354V26.5004H43.4008V9.5H39.531V18.525ZM51.1403 3.5H47.2705V9.5H44.3682V13.5H47.2705V26.5H51.1403V13.5H54.0426V9.5H51.1403V3.5ZM66.2294 21.417C65.3868 22.2001 64.2741 22.634 63.0533 22.634C60.3619 22.634 58.3855 20.5911 58.3855 17.7859C58.3855 14.9807 60.2989 13.0239 63.0533 13.0239C64.253 13.0239 65.3868 13.4371 66.2505 14.2198L66.8376 14.7419L69.4467 12.0461L68.7936 11.4371C67.2584 10.0042 65.2198 9.20007 63.0519 9.20007C58.2147 9.20007 54.7018 12.808 54.7018 17.7651C54.7018 22.7222 58.2988 26.4381 63.0519 26.4381C65.2606 26.4381 67.3203 25.634 68.8361 24.1783L69.4668 23.5693L66.8169 20.8752L66.2287 21.417H66.2294ZM83.2589 10.9821C82.1445 9.83017 80.8382 9.20007 79.0292 9.20007C77.7465 9.20007 76.2933 9.61322 75.3258 10.525V1.5H71.4561V26.5H75.3258V17.135C75.3258 13.3091 77.9553 13.0049 78.8813 13.0049C81.1944 13.0049 81.1304 15.244 81.1304 16.5918V26.4996H85.0002V16.6125C85.0002 14.2426 84.5212 12.2866 83.2589 10.9814" fill="white"/>
<path d="M62.9248 14.9385C64.4699 14.9385 65.7227 16.2331 65.7227 17.8305C65.7227 19.4279 64.4702 20.7226 62.9248 20.7226C61.3794 20.7226 60.127 19.4279 60.127 17.8305C60.127 16.2331 61.3794 14.9385 62.9248 14.9385Z" fill="#FF3D2E"/>
<path d="M16.6988 20.2213C15.2273 21.7863 13.2288 22.6344 11.1255 22.6344C6.81457 22.6344 3.68027 19.1344 3.68027 14.3303C3.68027 9.52614 6.81491 6.00434 11.1255 6.00434C13.2084 6.00434 15.1847 6.85139 16.6787 8.39534L17.2669 9.00434L19.8539 6.33029L19.2861 5.72129C17.1414 3.43824 14.2391 2.2002 11.1259 2.2002C4.77425 2.2002 0 7.41714 0 14.351C0 21.2849 4.79568 26.46 11.1255 26.46C14.2602 26.46 17.1625 25.2002 19.3072 22.9171L19.875 22.3081L17.3094 19.5912L16.6988 20.2213Z" fill="white"/>
</g>
<defs>
<clipPath id="clip0_56861_2242">
<rect width="85" height="28" fill="white" transform="translate(0 0.5)"/>
</clipPath>
</defs>
</svg>
