<svg width="150" height="40" viewBox="0 0 150 40" fill="none" xmlns="http://www.w3.org/2000/svg">
<path d="M21.4994 29.8232C18.5827 28.7399 15.5827 28.5733 12.8327 29.3233C10.916 29.8233 9.0827 30.8232 7.41603 32.0732L6.24934 33.0733L5.91602 33.4066L6.66601 34.0732C6.74934 34.0732 6.74935 34.1566 6.83269 34.2399C6.99935 34.4066 7.16603 34.4899 7.41603 34.6566L7.91601 34.9899L8.41602 34.5732C8.49935 34.4899 8.66602 34.3232 8.83268 34.2399C10.3327 32.9899 11.9993 32.1566 13.7493 31.7399C15.9993 31.1566 18.416 31.2399 20.8327 32.1566C22.8327 32.9066 26.916 33.8232 31.8327 31.7399L31.9994 31.6566L32.2494 31.4066C32.2494 31.3233 32.3327 31.3232 32.416 31.2399C32.8327 30.7399 33.2494 30.2399 33.5827 29.6566L35.2494 27.0732L32.5827 28.5732C28.666 30.7399 25.0827 31.1566 21.4994 29.8232Z" fill="white"/>
<path d="M10.0827 20.8233C12.3327 20.2399 14.7494 20.3233 17.166 21.2399C19.8327 22.2399 26.666 23.6566 34.3327 16.7399L35.5827 15.4899L35.666 15.4066L35.9994 15.0733L35.8327 14.6566C35.7493 14.3233 35.5827 13.9066 35.416 13.4899L34.9993 12.3232L34.166 13.1566C34.0827 13.3232 33.916 13.4066 33.7493 13.5732C30.0827 17.3232 24.416 21.1566 17.916 18.8233C14.9993 17.7399 11.9994 17.5733 9.24935 18.3233C6.58269 19.0733 4.24935 20.4899 2.08268 22.4899V22.4066L0.832682 23.7399C0.832682 23.8233 0.749364 23.8233 0.666031 23.9066L0.416016 24.1566L0.499354 24.4899C0.582687 24.9066 0.749349 25.3232 0.832682 25.7399L1.33269 27.0733L2.16602 25.9899C2.24935 25.8233 2.41602 25.7399 2.49935 25.5733C4.24935 23.9899 6.66602 21.7399 10.0827 20.8233Z" fill="white"/>
<path d="M2.00002 19.3229C3.91669 17.3229 6.08334 16.0729 8.41667 15.4063C10.6667 14.8229 13.0833 14.9063 15.5 15.8229C23 18.5729 29.5 14.0729 32.3334 11.6563L33.4167 10.5729L33.8333 10.2396L33.5 9.7396C33.25 9.4896 33.0834 9.15627 32.8334 8.82293L32.3334 8.15625L31.75 8.73959C31.6667 8.82293 31.5 8.98959 31.4167 9.07292C27.9167 12.4063 22.5 15.8229 16.3333 13.4896C13.4167 12.4063 10.4167 12.2396 7.66668 12.9896C5.91668 13.4896 4.25001 14.3229 2.58334 15.4063L0.833333 16.8229C0.666667 16.9896 0.583333 17.0729 0.416667 17.2396L0.250015 17.4063V17.6563C0.166682 18.2396 0.166672 18.8229 0.0833384 19.3229L0 21.4063L1.41668 19.9063C1.58334 19.7396 1.75002 19.4896 2.00002 19.3229Z" fill="white"/>
<path d="M23.9173 35.4895L23.7506 35.9895L23.9173 35.4895C23.6673 35.4062 23.5007 35.3228 23.2507 35.2395C20.334 34.1562 17.334 33.9895 14.584 34.7395C14.0006 34.9062 13.4173 35.0728 12.834 35.3228L10.834 36.2395L10.334 36.4895L12.0007 37.0729C12.5007 37.2395 13.0006 37.4062 13.5006 37.5729L13.7506 37.6562L14.0006 37.5729C14.2506 37.4895 14.5006 37.3228 14.7506 37.3228C14.9173 37.3228 15.084 37.2395 15.2506 37.1562C17.2506 36.6562 19.4173 36.6562 21.7506 37.4062C22.0006 37.4895 22.1673 37.5729 22.4173 37.6562L22.834 37.8229L23.084 37.7395C23.6673 37.5728 24.334 37.4062 24.834 37.1562L27.1673 36.3229L24.7506 35.7395C24.5006 35.6562 24.1673 35.5729 23.9173 35.4895Z" fill="white"/>
<path d="M36.6666 18.2402L35.4166 19.4902C35.25 19.6569 35.0833 19.8236 34.9167 19.9902C31.5 23.2402 26 26.7402 19.8333 24.4069C16.9167 23.3236 13.9167 23.1569 11.1667 23.9069C8.58334 24.6569 6.24998 25.9902 4.16665 27.9902L3.08333 29.1569L2.75 29.5736L3.08333 30.0736C3.33333 30.4069 3.50001 30.6569 3.66667 30.9902L4.16665 31.7402L4.74999 30.9902C4.83333 30.9069 4.99999 30.7402 5.08332 30.6569C7.08332 28.4902 9.24999 27.1569 11.75 26.4902C14 25.9069 16.4167 25.9902 18.8333 26.9069C20.9167 27.6569 23.0833 27.9069 25.25 27.6569C29.0833 27.2402 32.9167 25.0736 35.75 22.6569C35.9167 22.4902 36.0833 22.4069 36.25 22.2402L36.5 21.9902V21.7402C36.5 21.2402 36.5833 20.6569 36.5833 20.1569L36.6666 18.2402Z" fill="white"/>
<path d="M4.99934 10.5729L4.74935 10.0729L4.99934 10.5729C5.49934 10.3229 6.08269 10.1562 6.58269 9.98958C8.83269 9.40624 11.2494 9.48958 13.666 10.4062C15.2494 10.9896 16.8327 11.2396 18.5827 11.2396C22.0827 11.2396 25.5827 9.98958 28.8327 7.57292L30.0827 6.57291L30.4993 6.23958L29.7493 5.65623C29.4993 5.40623 29.166 5.15624 28.8327 4.98958L28.3327 4.65625L27.916 4.98958C27.7493 5.07291 27.666 5.23957 27.4993 5.32291C23.0827 8.65624 18.666 9.57292 14.4994 7.98958C11.4994 6.90625 8.49934 6.65625 5.49934 7.57292C5.24934 7.65625 4.99934 7.73957 4.66601 7.82291L4.49936 7.90624L4.24934 8.15623C4.24934 8.23957 4.16603 8.23958 4.08269 8.32291C3.74936 8.82291 3.33268 9.23959 2.99934 9.73959L1.41602 12.1562L3.99935 10.8229C4.41602 10.8229 4.74934 10.6563 4.99934 10.5729Z" fill="white"/>
<path d="M11.8327 4.90689L12.0827 4.99022C13.166 5.40689 14.8327 5.82356 16.916 5.82356C19.0827 5.82356 21.166 5.32355 23.2494 4.49022L25.8327 3.24022L24.0827 2.6569C23.5827 2.49023 23.0827 2.32357 22.4993 2.24023H22.2494L21.9994 2.32355C21.7494 2.40688 21.4993 2.57357 21.2493 2.6569C18.7493 3.57357 16.2494 3.74023 13.8327 3.07357C13.5827 2.99023 13.3327 2.90689 13.0827 2.82355L12.8327 2.74021L12.5827 2.82355C12.0827 2.99022 11.5827 3.1569 11.0827 3.4069L9.16602 4.24023L11.166 4.82355C11.3327 4.74021 11.5827 4.82355 11.8327 4.90689Z" fill="white"/>
<path d="M51.0674 28.2575H47.2227L53.0808 11.2878H57.7044L63.5543 28.2575H59.7096L55.4589 15.1657H55.3263L51.0674 28.2575ZM50.8271 21.5873H59.9085V24.388H50.8271V21.5873Z" fill="white"/>
<path d="M69.0604 11.2878V28.2575H65.5305V11.2878H69.0604Z" fill="white"/>
<path d="M78.6576 15.5302V18.1818H70.9931V15.5302H78.6576ZM72.7331 12.481H76.263V24.3465C76.263 24.6724 76.3127 24.9266 76.4121 25.1088C76.5115 25.2856 76.6496 25.4099 76.8264 25.4817C77.0087 25.5535 77.2186 25.5894 77.4561 25.5894C77.6219 25.5894 77.7876 25.5756 77.9533 25.548C78.119 25.5149 78.2461 25.49 78.3345 25.4734L78.8896 28.1001C78.7129 28.1553 78.4643 28.2188 78.1439 28.2907C77.8235 28.368 77.434 28.415 76.9756 28.4315C76.1249 28.4647 75.3791 28.3514 74.7383 28.0918C74.1031 27.8322 73.6087 27.4289 73.2551 26.882C72.9016 26.3352 72.7276 25.6447 72.7331 24.8105V12.481Z" fill="white"/>
<path d="M85.6075 27.3378V15.6048H88.5739V27.3378H85.6075ZM81.2242 22.9545V19.9881H92.9571V22.9545H81.2242Z" fill="white"/>
<path d="M105.701 16.1683C105.635 15.4999 105.35 14.9806 104.848 14.6105C104.345 14.2404 103.663 14.0553 102.801 14.0553C102.215 14.0553 101.721 14.1382 101.318 14.3039C100.914 14.4641 100.605 14.6878 100.39 14.9751C100.18 15.2623 100.075 15.5882 100.075 15.9528C100.064 16.2566 100.127 16.5218 100.265 16.7483C100.409 16.9748 100.605 17.1709 100.854 17.3366C101.102 17.4968 101.39 17.6376 101.715 17.7592C102.041 17.8752 102.389 17.9746 102.759 18.0575L104.284 18.4221C105.024 18.5878 105.704 18.8087 106.322 19.0849C106.941 19.3611 107.477 19.7009 107.93 20.1041C108.383 20.5074 108.734 20.9824 108.982 21.5293C109.236 22.0762 109.366 22.7031 109.372 23.4102C109.366 24.4487 109.101 25.3491 108.576 26.1114C108.057 26.8682 107.306 27.4565 106.322 27.8764C105.345 28.2907 104.165 28.4978 102.784 28.4978C101.414 28.4978 100.221 28.2879 99.2048 27.8681C98.1939 27.4483 97.404 26.8268 96.835 26.0037C96.2715 25.1751 95.976 24.1504 95.9484 22.9296H99.4202C99.4589 23.4986 99.6218 23.9737 99.9091 24.3548C100.202 24.7304 100.591 25.0149 101.077 25.2083C101.569 25.3961 102.124 25.49 102.743 25.49C103.351 25.49 103.878 25.4016 104.326 25.2248C104.778 25.0481 105.129 24.8023 105.378 24.4874C105.626 24.1725 105.751 23.8107 105.751 23.4019C105.751 23.0208 105.637 22.7004 105.411 22.4408C105.19 22.1811 104.864 21.9602 104.433 21.7779C104.008 21.5956 103.486 21.4299 102.867 21.2807L101.019 20.8167C99.5887 20.4687 98.459 19.9246 97.6304 19.1844C96.8018 18.4441 96.3903 17.4471 96.3958 16.1931C96.3903 15.1657 96.6637 14.268 97.2161 13.5002C97.7741 12.7323 98.5391 12.133 99.5114 11.7021C100.484 11.2712 101.588 11.0558 102.826 11.0558C104.085 11.0558 105.184 11.2712 106.124 11.7021C107.068 12.133 107.803 12.7323 108.328 13.5002C108.852 14.268 109.123 15.1574 109.14 16.1683H105.701Z" fill="white"/>
<path d="M115.249 20.8996V28.2575H111.719V11.2878H115.149V17.7757H115.298C115.585 17.0245 116.049 16.4362 116.69 16.0108C117.331 15.58 118.135 15.3645 119.102 15.3645C119.985 15.3645 120.756 15.5579 121.413 15.9445C122.076 16.3257 122.59 16.8753 122.954 17.5935C123.325 18.3061 123.507 19.1595 123.501 20.1538V28.2575H119.972V20.7836C119.977 19.9992 119.778 19.3888 119.375 18.9524C118.977 18.516 118.419 18.2978 117.701 18.2978C117.221 18.2978 116.795 18.4 116.425 18.6043C116.061 18.8087 115.773 19.107 115.563 19.4992C115.359 19.8859 115.254 20.3527 115.249 20.8996Z" fill="white"/>
<path d="M126.279 28.2575V15.5302H129.809V28.2575H126.279ZM128.052 13.8896C127.528 13.8896 127.077 13.7156 126.702 13.3676C126.332 13.0141 126.147 12.5915 126.147 12.0998C126.147 11.6137 126.332 11.1967 126.702 10.8487C127.077 10.4951 127.528 10.3184 128.052 10.3184C128.577 10.3184 129.025 10.4951 129.395 10.8487C129.77 11.1967 129.958 11.6137 129.958 12.0998C129.958 12.5915 129.77 13.0141 129.395 13.3676C129.025 13.7156 128.577 13.8896 128.052 13.8896Z" fill="white"/>
<path d="M140.742 15.5302V18.1818H131.626V15.5302H140.742ZM133.424 28.2575V14.6105C133.424 13.688 133.603 12.9229 133.962 12.3153C134.327 11.7076 134.824 11.2519 135.454 10.9481C136.084 10.6443 136.799 10.4924 137.6 10.4924C138.141 10.4924 138.636 10.5338 139.083 10.6167C139.536 10.6995 139.873 10.7741 140.094 10.8404L139.464 13.4919C139.326 13.4477 139.155 13.4063 138.951 13.3676C138.752 13.3289 138.547 13.3096 138.337 13.3096C137.818 13.3096 137.456 13.4311 137.252 13.6742C137.048 13.9117 136.945 14.2459 136.945 14.6768V28.2575H133.424Z" fill="white"/>
<path d="M148.407 15.5302V18.1818H140.742V15.5302H148.407ZM142.482 12.481H146.012V24.3465C146.012 24.6724 146.062 24.9266 146.161 25.1088C146.261 25.2856 146.399 25.4099 146.576 25.4817C146.758 25.5535 146.968 25.5894 147.205 25.5894C147.371 25.5894 147.537 25.5756 147.703 25.548C147.868 25.5149 147.995 25.49 148.084 25.4734L148.639 28.1001C148.462 28.1553 148.214 28.2188 147.893 28.2907C147.573 28.368 147.183 28.415 146.725 28.4315C145.874 28.4647 145.128 28.3514 144.488 28.0918C143.852 27.8322 143.358 27.4289 143.004 26.882C142.651 26.3352 142.477 25.6447 142.482 24.8105V12.481Z" fill="white"/>
</svg>
