<svg width="180" height="40" viewBox="0 0 180 40" fill="none" xmlns="http://www.w3.org/2000/svg">
<path opacity="0.8" d="M17.1111 26.1114C23.8613 26.1114 29.3333 20.6394 29.3333 13.8892C29.3333 7.13907 23.8613 1.66699 17.1111 1.66699H0V26.1114H17.1111Z" fill="white"/>
<path opacity="0.6" d="M0 1.66699L29.3333 38.3337H9.77778L0 26.1114V1.66699Z" fill="white"/>
<path d="M19.3864 25.9C18.6492 26.0388 17.8886 26.1114 17.1111 26.1114H0V1.66699L19.3864 25.9Z" fill="white"/>
<path d="M49.4498 28.5671C47.7387 28.5671 46.2687 28.2248 45.0398 27.5404C43.8264 26.8404 42.8931 25.8604 42.2398 24.6004C41.5864 23.3248 41.2598 21.8237 41.2598 20.0971C41.2598 18.3704 41.5864 16.8771 42.2398 15.6171C42.8931 14.3571 43.8264 13.3848 45.0398 12.7004C46.2687 12.0004 47.7387 11.6504 49.4498 11.6504C50.5542 11.6504 51.5964 11.8215 52.5764 12.1637C53.572 12.5059 54.3887 12.9959 55.0264 13.6337L54.0464 16.0137C53.3464 15.4226 52.6309 14.9948 51.8998 14.7304C51.1687 14.4504 50.3831 14.3104 49.5431 14.3104C47.8787 14.3104 46.6109 14.8159 45.7398 15.8271C44.8687 16.8226 44.4331 18.2459 44.4331 20.0971C44.4331 21.9482 44.8687 23.3793 45.7398 24.3904C46.6109 25.4015 47.8787 25.9071 49.5431 25.9071C50.3831 25.9071 51.1687 25.7748 51.8998 25.5104C52.6309 25.2304 53.3464 24.7948 54.0464 24.2037L55.0264 26.5837C54.3887 27.2059 53.572 27.6959 52.5764 28.0537C51.5964 28.3959 50.5542 28.5671 49.4498 28.5671Z" fill="white"/>
<path d="M61.736 28.5671C60.5538 28.5671 59.5272 28.3259 58.656 27.8437C57.7849 27.3615 57.1083 26.6771 56.626 25.7904C56.1438 24.8882 55.9027 23.8304 55.9027 22.6171C55.9027 21.4037 56.1438 20.3537 56.626 19.4671C57.1083 18.5804 57.7849 17.8959 58.656 17.4137C59.5272 16.9315 60.5538 16.6904 61.736 16.6904C62.9183 16.6904 63.9449 16.9315 64.816 17.4137C65.6872 17.8959 66.3638 18.5804 66.846 19.4671C67.3283 20.3537 67.5694 21.4037 67.5694 22.6171C67.5694 23.8304 67.3283 24.8882 66.846 25.7904C66.3638 26.6771 65.6872 27.3615 64.816 27.8437C63.9449 28.3259 62.9183 28.5671 61.736 28.5671ZM61.736 26.3504C62.6072 26.3504 63.3071 26.0393 63.836 25.4171C64.3649 24.7793 64.6294 23.8459 64.6294 22.6171C64.6294 21.3726 64.3649 20.4471 63.836 19.8404C63.3071 19.2182 62.6072 18.9071 61.736 18.9071C60.8649 18.9071 60.1649 19.2182 59.636 19.8404C59.1072 20.4471 58.8427 21.3726 58.8427 22.6171C58.8427 23.8459 59.1072 24.7793 59.636 25.4171C60.1649 26.0393 60.8649 26.3504 61.736 26.3504Z" fill="white"/>
<path d="M70.0234 28.3337V16.9237H72.87V18.6737C73.2123 18.0515 73.6867 17.5693 74.2934 17.2271C74.9 16.8693 75.6 16.6904 76.3934 16.6904C78.1045 16.6904 79.2245 17.4371 79.7534 18.9304C80.1112 18.2304 80.6245 17.6859 81.2934 17.2971C81.9623 16.8926 82.7245 16.6904 83.58 16.6904C86.1467 16.6904 87.43 18.2537 87.43 21.3804V28.3337H84.5134V21.4971C84.5134 20.6259 84.3656 19.9882 84.07 19.5837C83.7901 19.1793 83.3078 18.9771 82.6234 18.9771C81.8612 18.9771 81.2623 19.2493 80.8267 19.7937C80.3912 20.3226 80.1734 21.0615 80.1734 22.0104V28.3337H77.2567V21.4971C77.2567 20.6259 77.1089 19.9882 76.8134 19.5837C76.5334 19.1793 76.0589 18.9771 75.39 18.9771C74.6278 18.9771 74.0289 19.2493 73.5934 19.7937C73.1578 20.3226 72.94 21.0615 72.94 22.0104V28.3337H70.0234Z" fill="white"/>
<path d="M90.4856 28.3337V16.9237H93.3323V18.6737C93.6745 18.0515 94.149 17.5693 94.7556 17.2271C95.3623 16.8693 96.0623 16.6904 96.8556 16.6904C98.5667 16.6904 99.6867 17.4371 100.216 18.9304C100.573 18.2304 101.087 17.6859 101.756 17.2971C102.425 16.8926 103.187 16.6904 104.042 16.6904C106.609 16.6904 107.892 18.2537 107.892 21.3804V28.3337H104.976V21.4971C104.976 20.6259 104.828 19.9882 104.532 19.5837C104.252 19.1793 103.77 18.9771 103.086 18.9771C102.323 18.9771 101.725 19.2493 101.289 19.7937C100.853 20.3226 100.636 21.0615 100.636 22.0104V28.3337H97.719V21.4971C97.719 20.6259 97.5712 19.9882 97.2756 19.5837C96.9956 19.1793 96.5212 18.9771 95.8523 18.9771C95.0901 18.9771 94.4912 19.2493 94.0556 19.7937C93.6201 20.3226 93.4023 21.0615 93.4023 22.0104V28.3337H90.4856Z" fill="white"/>
<path d="M114.658 28.5671C113.833 28.5671 113.095 28.4115 112.441 28.1004C111.803 27.7737 111.298 27.3382 110.925 26.7937C110.567 26.2493 110.388 25.6348 110.388 24.9504C110.388 24.1104 110.606 23.4493 111.041 22.9671C111.477 22.4693 112.185 22.1115 113.165 21.8937C114.145 21.6759 115.459 21.5671 117.108 21.5671H117.925V21.0771C117.925 20.2993 117.753 19.7393 117.411 19.3971C117.069 19.0548 116.493 18.8837 115.685 18.8837C115.047 18.8837 114.393 18.9848 113.725 19.1871C113.056 19.3737 112.379 19.6693 111.695 20.0737L110.855 18.0904C111.259 17.8104 111.733 17.5693 112.278 17.3671C112.838 17.1493 113.421 16.9859 114.028 16.8771C114.65 16.7526 115.233 16.6904 115.778 16.6904C117.442 16.6904 118.679 17.0793 119.488 17.8571C120.297 18.6193 120.701 19.8093 120.701 21.4271V28.3337H117.971V26.5137C117.707 27.1515 117.287 27.6571 116.711 28.0304C116.136 28.3882 115.451 28.5671 114.658 28.5671ZM115.265 26.5604C116.027 26.5604 116.657 26.2959 117.155 25.7671C117.668 25.2382 117.925 24.5693 117.925 23.7604V23.2471H117.131C115.669 23.2471 114.65 23.3637 114.075 23.5971C113.515 23.8148 113.235 24.2193 113.235 24.8104C113.235 25.3237 113.413 25.7437 113.771 26.0704C114.129 26.3971 114.627 26.5604 115.265 26.5604Z" fill="white"/>
<path d="M123.662 28.3337V16.9237H126.508V18.6971C126.897 18.0437 127.418 17.5459 128.072 17.2037C128.74 16.8615 129.487 16.6904 130.312 16.6904C133.003 16.6904 134.348 18.2537 134.348 21.3804V28.3337H131.432V21.5204C131.432 20.6337 131.26 19.9882 130.918 19.5837C130.592 19.1793 130.078 18.9771 129.378 18.9771C128.523 18.9771 127.838 19.2493 127.325 19.7937C126.827 20.3226 126.578 21.0304 126.578 21.9171V28.3337H123.662Z" fill="white"/>
<path d="M141.697 28.5671C140.702 28.5671 139.823 28.3259 139.061 27.8437C138.314 27.3615 137.731 26.6771 137.311 25.7904C136.891 24.8882 136.681 23.8304 136.681 22.6171C136.681 21.3882 136.891 20.3382 137.311 19.4671C137.731 18.5804 138.314 17.8959 139.061 17.4137C139.823 16.9315 140.702 16.6904 141.697 16.6904C142.506 16.6904 143.237 16.8693 143.891 17.2271C144.544 17.5848 145.034 18.0593 145.361 18.6504V11.8837H148.277V28.3337H145.431V26.4437C145.12 27.0971 144.63 27.6182 143.961 28.0071C143.292 28.3804 142.537 28.5671 141.697 28.5671ZM142.514 26.3504C143.385 26.3504 144.085 26.0393 144.614 25.4171C145.143 24.7793 145.407 23.8459 145.407 22.6171C145.407 21.3726 145.143 20.4471 144.614 19.8404C144.085 19.2182 143.385 18.9071 142.514 18.9071C141.643 18.9071 140.943 19.2182 140.414 19.8404C139.885 20.4471 139.621 21.3726 139.621 22.6171C139.621 23.8459 139.885 24.7793 140.414 25.4171C140.943 26.0393 141.643 26.3504 142.514 26.3504Z" fill="white"/>
<path d="M155.712 27.4004V22.6637H151.092V20.6104H155.712V16.0137H157.858V20.6104H162.478V22.6637H157.858V27.4004H155.712Z" fill="white"/>
<path d="M165.572 28.3337V11.8837H172.712C174.517 11.8837 175.909 12.3193 176.889 13.1904C177.869 14.0459 178.359 15.2515 178.359 16.8071C178.359 18.0359 178.04 19.0548 177.402 19.8637C176.765 20.6571 175.847 21.1937 174.649 21.4737C175.442 21.7226 176.096 22.3215 176.609 23.2704L179.362 28.3337H176.072L173.226 23.0837C172.946 22.5704 172.611 22.2204 172.222 22.0337C171.849 21.8471 171.367 21.7537 170.776 21.7537H168.559V28.3337H165.572ZM168.559 19.5371H172.199C174.377 19.5371 175.466 18.6504 175.466 16.8771C175.466 15.1193 174.377 14.2404 172.199 14.2404H168.559V19.5371Z" fill="white"/>
</svg>
