<svg width="170" height="48" viewBox="0 0 170 48" fill="none" xmlns="http://www.w3.org/2000/svg">
<path fill-rule="evenodd" clip-rule="evenodd" d="M22 46C34.1503 46 44 36.1503 44 24C44 11.8497 34.1503 2 22 2C9.84971 2 0 11.8497 0 24C0 36.1503 9.84971 46 22 46ZM28.8632 12.2485C29.1973 11.0619 28.0457 10.3601 26.994 11.1094L12.3124 21.5685C11.1718 22.3811 11.3512 24 12.5819 24H16.448V23.9701H23.9828L17.8433 26.1363L15.1368 35.7515C14.8027 36.9382 15.9542 37.6399 17.006 36.8906L31.6876 26.4315C32.8282 25.619 32.6487 24 31.4181 24H25.5553L28.8632 12.2485Z" fill="white"/>
<path d="M55.3789 33.9093V30.4293H58.1389V16.3893H55.3789V12.9093H66.1789C67.4589 12.9093 68.5689 13.1293 69.5089 13.5693C70.4689 13.9893 71.2089 14.5993 71.7289 15.3993C72.2689 16.1793 72.5389 17.1193 72.5389 18.2193V18.5193C72.5389 19.4793 72.3589 20.2693 71.9989 20.8893C71.6389 21.4893 71.2089 21.9593 70.7089 22.2993C70.2289 22.6193 69.7689 22.8493 69.3289 22.9893V23.5293C69.7689 23.6493 70.2489 23.8793 70.7689 24.2193C71.2889 24.5393 71.7289 25.0093 72.0889 25.6293C72.4689 26.2493 72.6589 27.0593 72.6589 28.0593V28.3593C72.6589 29.5193 72.3889 30.5193 71.8489 31.3593C71.3089 32.1793 70.5589 32.8093 69.5989 33.2493C68.6589 33.6893 67.5589 33.9093 66.2989 33.9093H55.3789ZM62.0989 30.3093H65.8189C66.6789 30.3093 67.3689 30.0993 67.8889 29.6793C68.4289 29.2593 68.6989 28.6593 68.6989 27.8793V27.5793C68.6989 26.7993 68.4389 26.1993 67.9189 25.7793C67.3989 25.3593 66.6989 25.1493 65.8189 25.1493H62.0989V30.3093ZM62.0989 21.5493H65.7589C66.5789 21.5493 67.2489 21.3393 67.7689 20.9193C68.3089 20.4993 68.5789 19.9193 68.5789 19.1793V18.8793C68.5789 18.1193 68.3189 17.5393 67.7989 17.1393C67.2789 16.7193 66.5989 16.5093 65.7589 16.5093H62.0989V21.5493Z" fill="white"/>
<path d="M81.6008 34.3293C80.1208 34.3293 78.7908 34.0293 77.6108 33.4293C76.4308 32.8293 75.5008 31.9593 74.8208 30.8193C74.1408 29.6793 73.8008 28.3093 73.8008 26.7093V26.2293C73.8008 24.6293 74.1408 23.2593 74.8208 22.1193C75.5008 20.9793 76.4308 20.1093 77.6108 19.5093C78.7908 18.9093 80.1208 18.6093 81.6008 18.6093C83.0808 18.6093 84.4108 18.9093 85.5908 19.5093C86.7708 20.1093 87.7008 20.9793 88.3808 22.1193C89.0608 23.2593 89.4008 24.6293 89.4008 26.2293V26.7093C89.4008 28.3093 89.0608 29.6793 88.3808 30.8193C87.7008 31.9593 86.7708 32.8293 85.5908 33.4293C84.4108 34.0293 83.0808 34.3293 81.6008 34.3293ZM81.6008 30.9693C82.7608 30.9693 83.7208 30.5993 84.4808 29.8593C85.2408 29.0993 85.6208 28.0193 85.6208 26.6193V26.3193C85.6208 24.9193 85.2408 23.8493 84.4808 23.1093C83.7408 22.3493 82.7808 21.9693 81.6008 21.9693C80.4408 21.9693 79.4808 22.3493 78.7208 23.1093C77.9608 23.8493 77.5808 24.9193 77.5808 26.3193V26.6193C77.5808 28.0193 77.9608 29.0993 78.7208 29.8593C79.4808 30.5993 80.4408 30.9693 81.6008 30.9693Z" fill="white"/>
<path d="M91.3899 33.9093V12.9093H95.1699V33.9093H91.3899Z" fill="white"/>
<path d="M103.559 33.9093C102.579 33.9093 101.779 33.6093 101.159 33.0093C100.559 32.3893 100.259 31.5693 100.259 30.5493V22.1493H96.5387V19.0293H100.259V14.4093H104.039V19.0293H108.119V22.1493H104.039V29.8893C104.039 30.4893 104.319 30.7893 104.879 30.7893H107.759V33.9093H103.559Z" fill="white"/>
<path d="M116.22 34.3293C114.28 34.3293 112.69 33.9093 111.45 33.0693C110.21 32.2293 109.46 31.0293 109.2 29.4693L112.68 28.5693C112.82 29.2693 113.05 29.8193 113.37 30.2193C113.71 30.6193 114.12 30.9093 114.6 31.0893C115.1 31.2493 115.64 31.3293 116.22 31.3293C117.1 31.3293 117.75 31.1793 118.17 30.8793C118.59 30.5593 118.8 30.1693 118.8 29.7093C118.8 29.2493 118.6 28.8993 118.2 28.6593C117.8 28.3993 117.16 28.1893 116.28 28.0293L115.44 27.8793C114.4 27.6793 113.45 27.4093 112.59 27.0693C111.73 26.7093 111.04 26.2193 110.52 25.5993C110 24.9793 109.74 24.1793 109.74 23.1993C109.74 21.7193 110.28 20.5893 111.36 19.8093C112.44 19.0093 113.86 18.6093 115.62 18.6093C117.28 18.6093 118.66 18.9793 119.76 19.7193C120.86 20.4593 121.58 21.4293 121.92 22.6293L118.41 23.7093C118.25 22.9493 117.92 22.4093 117.42 22.0893C116.94 21.7693 116.34 21.6093 115.62 21.6093C114.9 21.6093 114.35 21.7393 113.97 21.9993C113.59 22.2393 113.4 22.5793 113.4 23.0193C113.4 23.4993 113.6 23.8593 114 24.0993C114.4 24.3193 114.94 24.4893 115.62 24.6093L116.46 24.7593C117.58 24.9593 118.59 25.2293 119.49 25.5693C120.41 25.8893 121.13 26.3593 121.65 26.9793C122.19 27.5793 122.46 28.3993 122.46 29.4393C122.46 30.9993 121.89 32.2093 120.75 33.0693C119.63 33.9093 118.12 34.3293 116.22 34.3293Z" fill="white"/>
<path d="M124.273 33.9093V12.9093H128.053V20.8593H128.593C128.753 20.5393 129.003 20.2193 129.343 19.8993C129.683 19.5793 130.133 19.3193 130.693 19.1193C131.273 18.8993 132.003 18.7893 132.883 18.7893C134.043 18.7893 135.053 19.0593 135.913 19.5993C136.793 20.1193 137.473 20.8493 137.953 21.7893C138.433 22.7093 138.673 23.7893 138.673 25.0293V33.9093H134.893V25.3293C134.893 24.2093 134.613 23.3693 134.053 22.8093C133.513 22.2493 132.733 21.9693 131.713 21.9693C130.553 21.9693 129.653 22.3593 129.013 23.1393C128.373 23.8993 128.053 24.9693 128.053 26.3493V33.9093H124.273Z" fill="white"/>
<path d="M141.259 33.9093V19.0293H145.039V33.9093H141.259ZM143.149 17.2893C142.469 17.2893 141.889 17.0693 141.409 16.6293C140.949 16.1893 140.719 15.6093 140.719 14.8893C140.719 14.1693 140.949 13.5893 141.409 13.1493C141.889 12.7093 142.469 12.4893 143.149 12.4893C143.849 12.4893 144.429 12.7093 144.889 13.1493C145.349 13.5893 145.579 14.1693 145.579 14.8893C145.579 15.6093 145.349 16.1893 144.889 16.6293C144.429 17.0693 143.849 17.2893 143.149 17.2893Z" fill="white"/>
<path d="M150.188 33.9093V22.1493H146.408V19.0293H150.188V16.2693C150.188 15.2493 150.488 14.4393 151.088 13.8393C151.708 13.2193 152.508 12.9093 153.488 12.9093H157.388V16.0293H154.808C154.248 16.0293 153.968 16.3293 153.968 16.9293V19.0293H157.868V22.1493H153.968V33.9093H150.188Z" fill="white"/>
<path d="M164.701 33.9093C163.721 33.9093 162.921 33.6093 162.301 33.0093C161.701 32.3893 161.401 31.5693 161.401 30.5493V22.1493H157.681V19.0293H161.401V14.4093H165.181V19.0293H169.261V22.1493H165.181V29.8893C165.181 30.4893 165.461 30.7893 166.021 30.7893H168.901V33.9093H164.701Z" fill="white"/>
</svg>
