<svg width="68" height="68" viewBox="0 0 68 68" fill="none" xmlns="http://www.w3.org/2000/svg">
<path d="M16.0146 57.8203C16.1982 58.1331 16.5314 58.3303 16.8986 58.3303C17.2658 58.3303 17.599 58.1331 17.7826 57.8203L23.5082 47.9331L33.1166 64.5455C33.3002 64.8583 33.6334 65.0555 34.0006 65.0555C34.3678 65.0555 34.701 64.8583 34.8846 64.5455L44.4998 47.9331L50.2254 57.8203C50.409 58.1331 50.7422 58.3303 51.1094 58.3303C51.4766 58.3303 51.8098 58.1331 51.9934 57.8203L65.4846 34.5099C65.6682 34.1971 65.6682 33.8027 65.4846 33.4899L51.9866 10.1795C51.803 9.86674 51.4698 9.66954 51.1026 9.66954C50.7354 9.66954 50.4022 9.86674 50.2186 10.1795L44.493 20.0667L34.8846 3.45434C34.701 3.14154 34.3678 2.94434 34.0006 2.94434C33.6334 2.94434 33.3002 3.14154 33.1166 3.45434L23.5014 20.0667L17.7758 10.1795C17.5922 9.86674 17.259 9.66954 16.8918 9.66954C16.5246 9.66954 16.1914 9.86674 16.0078 10.1795L2.51661 33.4899C2.33301 33.8027 2.33301 34.1971 2.51661 34.5099L16.0146 57.8203ZM51.1094 12.7295L63.4242 33.9999L51.1094 55.2703L45.6762 45.8999L52.2722 34.5099C52.4558 34.1971 52.4558 33.8027 52.2722 33.4899L45.6762 22.0999L51.1094 12.7295ZM44.4998 43.8667L38.7878 33.9999L44.4998 24.1331L50.2118 33.9999L44.4998 43.8667ZM34.0006 5.99754L43.3234 22.0999L36.7274 33.4899C36.5438 33.8027 36.5438 34.1971 36.7274 34.5099L43.3234 45.8999L34.0006 62.0023L24.6778 45.8999L31.2738 34.5099C31.4574 34.1971 31.4574 33.8027 31.2738 33.4899L24.6778 22.0999L34.0006 5.99754ZM23.5014 43.8667L17.7894 33.9999L23.5014 24.1331L29.2134 33.9999L23.5014 43.8667ZM16.8918 12.7295L22.3182 22.0999L15.7222 33.4899C15.5386 33.8027 15.5386 34.1971 15.7222 34.5099L22.3182 45.8999L16.8918 55.2703L4.57701 33.9999L16.8918 12.7295Z" fill="white"/>
</svg>
