<svg width="68" height="68" viewBox="0 0 68 68" fill="none" xmlns="http://www.w3.org/2000/svg">
<path d="M56.8661 24.8401V12.1513C56.8661 11.5869 56.4105 11.1313 55.8461 11.1313H43.1573L34.7185 2.68567C34.3173 2.28447 33.6713 2.28447 33.2769 2.68567L24.8381 11.1313H12.1493C11.5849 11.1313 11.1293 11.5869 11.1293 12.1513V24.8401L2.68371 33.2789C2.28251 33.6801 2.28251 34.3261 2.68371 34.7205L11.1225 43.1593V55.8481C11.1225 56.4125 11.5781 56.8681 12.1425 56.8681H24.8313L33.2701 65.3069C33.4673 65.5041 33.7325 65.6061 33.9909 65.6061C34.2493 65.6061 34.5145 65.5041 34.7117 65.3069L43.1505 56.8681H55.8393C56.4037 56.8681 56.8593 56.4125 56.8593 55.8481V43.1593L65.2981 34.7205C65.6993 34.3193 65.6993 33.6733 65.2981 33.2789L56.8661 24.8401ZM54.8261 13.1713V22.8001L45.1973 13.1713H54.8261ZM54.8261 25.6833V42.3161L42.3141 54.8281H25.6813L13.1693 42.3161V25.6833L25.6813 13.1713H42.3141L54.8261 25.6833ZM33.9977 4.84807L40.2741 11.1245H27.7213L33.9977 4.84807ZM13.1693 13.1713H22.7981L13.1693 22.8001V13.1713ZM4.84611 33.9997L11.1225 27.7233V40.2761L4.84611 33.9997ZM13.1693 54.8281V45.1993L22.7981 54.8281H13.1693ZM33.9977 63.1513L27.7213 56.8749H40.2741L33.9977 63.1513ZM54.8261 54.8281H45.1973L54.8261 45.1993V54.8281ZM56.8661 40.2761V27.7233L63.1493 33.9997L56.8661 40.2761Z" fill="white"/>
</svg>
