<svg width="124" height="124" viewBox="0 0 124 124" fill="none" xmlns="http://www.w3.org/2000/svg">
<path d="M89.8998 49.1291C81.6414 49.1291 74.2758 52.0803 69.0058 54.9943C71.9198 49.7243 74.871 42.3463 74.871 34.1003C74.871 18.1663 63.8598 5.50586 63.3886 4.97266C62.6818 4.16666 61.3054 4.16666 60.5986 4.97266C60.1274 5.50586 49.1162 18.1787 49.1162 34.1003C49.1162 42.3587 52.0674 49.7243 54.9814 54.9943C49.7238 52.0803 42.3582 49.1291 34.0998 49.1291C18.1658 49.1291 5.50544 60.1403 4.97224 60.6115C4.56304 60.9587 4.33984 61.4671 4.33984 62.0003C4.33984 62.5335 4.56304 63.0419 4.97224 63.3891C5.50544 63.8603 18.1782 74.8715 34.0998 74.8715C42.3582 74.8715 49.7238 71.9203 54.9938 69.0063C52.0798 74.2763 49.1286 81.6419 49.1286 89.9003C49.1286 105.834 60.1398 118.495 60.611 119.028C60.9582 119.425 61.4666 119.66 61.9998 119.66C62.533 119.66 63.0414 119.437 63.3886 119.028C63.8598 118.495 74.871 105.822 74.871 89.9003C74.871 81.6419 71.9198 74.2763 69.0058 69.0063C74.2758 71.9203 81.6538 74.8715 89.8998 74.8715C105.834 74.8715 118.494 63.8603 119.027 63.3891C119.424 63.0419 119.66 62.5335 119.66 62.0003C119.66 61.4671 119.437 60.9587 119.027 60.6115C118.494 60.1403 105.834 49.1291 89.8998 49.1291ZM61.9998 9.20106C64.8642 13.0699 71.151 22.8535 71.151 34.1003C71.151 45.3471 64.8642 55.1183 61.9998 58.9995C59.1354 55.1307 52.8486 45.3471 52.8486 34.1003C52.8486 22.8535 59.1354 13.0823 61.9998 9.20106ZM9.20064 62.0003C13.0694 59.1359 22.853 52.8491 34.0998 52.8491C45.3466 52.8491 55.1178 59.1359 58.999 62.0003C55.1302 64.8647 45.3466 71.1515 34.0998 71.1515C22.853 71.1515 13.0818 64.8647 9.20064 62.0003ZM61.9998 114.799C59.1354 110.931 52.8486 101.147 52.8486 89.9003C52.8486 78.6535 59.1354 68.8823 61.9998 65.0011C64.8642 68.8699 71.151 78.6535 71.151 89.9003C71.151 101.147 64.8642 110.918 61.9998 114.799ZM89.8998 71.1515C78.653 71.1515 68.8818 64.8647 65.0006 62.0003C68.8694 59.1359 78.653 52.8491 89.8998 52.8491C101.147 52.8491 110.918 59.1359 114.799 62.0003C110.918 64.8647 101.147 71.1515 89.8998 71.1515Z" fill="white"/>
</svg>
