<svg width="124" height="124" viewBox="0 0 124 124" fill="none" xmlns="http://www.w3.org/2000/svg">
<path d="M39.4566 97.1295C46.165 97.1295 54.2746 93.0499 61.9998 87.7303C70.9774 93.9551 78.5538 97.1171 84.5182 97.1171C103.887 97.1171 119.647 81.3691 119.647 62.0003C119.647 42.6315 103.887 26.8711 84.5182 26.8711C78.5415 26.8711 70.965 30.0331 61.9874 36.2703C54.2622 30.9507 46.1526 26.8835 39.4442 26.8835C20.1002 26.8835 4.33984 42.6315 4.33984 62.0003C4.33984 81.3691 20.1002 97.1295 39.4566 97.1295ZM84.5306 30.5911C101.853 30.5911 115.94 44.6899 115.94 62.0003C115.94 79.3107 101.853 93.3971 84.5306 93.3971C79.6326 93.3971 72.9986 90.6443 65.2362 85.4239C78.0206 75.9627 89.0319 64.0835 89.7882 63.2527C90.4454 62.5459 90.4454 61.4423 89.7882 60.7355C89.0319 59.9171 78.0206 48.0255 65.2238 38.5643C72.9862 33.3563 79.6326 30.5911 84.5306 30.5911ZM39.4566 30.6035C45.607 30.6035 53.357 34.6831 60.797 39.9531C60.8838 40.0275 60.983 40.0895 61.0822 40.1515C72.1182 48.0131 82.435 58.4415 85.8574 62.0127C82.5342 65.4847 72.6886 75.4171 62.0122 83.1919C48.9054 73.6811 37.0634 60.8843 36.9394 60.7479C36.245 59.9915 35.067 59.9419 34.3106 60.6363C33.5542 61.3307 33.5046 62.5087 34.199 63.2651C34.323 63.4015 45.7806 75.8015 58.7882 85.4363C51.9806 90.0243 45.0614 93.3971 39.4566 93.3971C22.1462 93.4095 8.05984 79.3231 8.05984 62.0003C8.05984 44.6775 22.1462 30.6035 39.4566 30.6035Z" fill="white"/>
</svg>
