<svg width="24" height="24" viewBox="0 0 24 24" fill="none" xmlns="http://www.w3.org/2000/svg">
<path d="M22.4814 5.07793C22.4519 4.95341 22.3911 4.8385 22.3048 4.74411C22.2184 4.64973 22.1093 4.57901 21.9879 4.53868L20.0941 3.90718L19.4619 2.01343C19.4214 1.89225 19.3507 1.78342 19.2563 1.69726C19.162 1.61109 19.0473 1.55044 18.9229 1.52107C18.7986 1.4917 18.6688 1.49457 18.5459 1.52941C18.423 1.56426 18.311 1.62992 18.2206 1.72018L15.8109 4.12993C13.7446 3.03366 11.3535 2.71526 9.0724 3.23261C6.79126 3.74996 4.77149 5.06871 3.38031 6.9491C1.98913 8.8295 1.3189 11.1467 1.49148 13.4794C1.66406 15.8121 2.66798 18.0054 4.32074 19.6606C5.97349 21.3158 8.16533 22.323 10.4978 22.499C12.8302 22.675 15.1484 22.0082 17.0308 20.6198C18.9133 19.2314 20.235 17.2136 20.7557 14.9332C21.2765 12.6528 20.9616 10.2613 19.8684 8.19343L22.2811 5.78068C22.3717 5.69034 22.4376 5.57834 22.4726 5.45534C22.5077 5.33234 22.5107 5.20242 22.4814 5.07793ZM11.2509 21.0004C9.99919 21.0053 8.7628 20.7254 7.63533 20.1818C6.50785 19.6381 5.51886 18.8451 4.74325 17.8626C3.96763 16.8802 3.42572 15.7342 3.15857 14.5113C2.89141 13.2885 2.90601 12.0209 3.20125 10.8045C3.49649 9.58814 4.06464 8.4549 4.86268 7.49059C5.66071 6.52629 6.6677 5.75622 7.80739 5.23869C8.94709 4.72117 10.1896 4.46975 11.4408 4.50349C12.6921 4.53723 13.9192 4.85524 15.0294 5.43343C15.0339 5.45143 15.0339 5.46943 15.0399 5.48743L15.6399 7.29793L14.3889 8.55043C13.3218 7.75188 11.9918 7.38721 10.6667 7.52984C9.34154 7.67246 8.11963 8.31178 7.24691 9.31911C6.3742 10.3264 5.91548 11.627 5.9631 12.9589C6.01072 14.2909 6.56115 15.5553 7.50358 16.4977C8.446 17.4402 9.71046 17.9906 11.0424 18.0382C12.3743 18.0858 13.6749 17.6271 14.6822 16.7544C15.6895 15.8817 16.3288 14.6598 16.4715 13.3346C16.6141 12.0095 16.2494 10.6795 15.4509 9.61243L16.7049 8.35843L18.5154 8.95843C18.5311 8.96368 18.5484 8.96218 18.5649 8.96668C19.223 10.2218 19.5453 11.6259 19.5005 13.0424C19.4558 14.4589 19.0454 15.8398 18.3093 17.0509C17.5732 18.262 16.5364 19.2621 15.2996 19.9542C14.0628 20.6462 12.6681 21.0066 11.2509 21.0004ZM15.0009 12.7504C15.0034 13.5887 14.7257 14.4038 14.2121 15.0663C13.6984 15.7288 12.9782 16.2007 12.1657 16.4071C11.3532 16.6135 10.495 16.5425 9.72746 16.2055C8.9599 15.8685 8.32692 15.2847 7.92904 14.5468C7.53116 13.809 7.39118 12.9593 7.53132 12.1328C7.67147 11.3063 8.0837 10.5503 8.70258 9.98489C9.32145 9.41943 10.1115 9.07693 10.9472 9.01176C11.783 8.94659 12.6166 9.16249 13.3156 9.62518L11.6341 11.3067C11.5094 11.2711 11.3805 11.2522 11.2509 11.2504C10.9542 11.2504 10.6642 11.3384 10.4175 11.5032C10.1708 11.668 9.97859 11.9023 9.86506 12.1764C9.75152 12.4505 9.72182 12.7521 9.7797 13.0431C9.83758 13.334 9.98044 13.6013 10.1902 13.8111C10.4 14.0209 10.6673 14.1637 10.9582 14.2216C11.2492 14.2795 11.5508 14.2498 11.8249 14.1362C12.099 14.0227 12.3333 13.8305 12.4981 13.5838C12.6629 13.3371 12.7509 13.0471 12.7509 12.7504C12.7491 12.6208 12.7302 12.4919 12.6946 12.3672L14.3761 10.6857C14.7834 11.2973 15.0007 12.0156 15.0009 12.7504ZM18.5476 7.39243L17.0941 6.90718L16.6096 5.45293L18.4224 3.63868L18.7899 4.73743C18.8266 4.84793 18.8886 4.94835 18.9708 5.03076C19.0531 5.11316 19.1534 5.17527 19.2639 5.21218L20.3619 5.57818L18.5476 7.39243Z" fill="white"/>
</svg>
