<svg width="48" height="48" viewBox="0 0 48 48" fill="none" xmlns="http://www.w3.org/2000/svg">
<path d="M40.9375 33.875C40.3021 33.875 39.6865 33.9608 39.1003 34.1188L36.8195 29.557C38.4686 28.2631 39.5313 26.2539 39.5313 23.9999C39.5313 20.1056 36.363 16.9374 32.4687 16.9374C31.8333 16.9374 31.2178 17.0232 30.6316 17.1813L28.3507 12.6195C29.9998 11.3255 31.0624 9.31631 31.0624 7.06238C31.0625 3.16819 27.8943 0 24 0C20.1057 0 16.9375 3.16819 16.9375 7.06247C16.9375 9.31641 18.0001 11.3256 19.6493 12.6196L17.3684 17.1814C16.7823 17.0233 16.1667 16.9375 15.5313 16.9375C11.637 16.9375 8.46881 20.1057 8.46881 24C8.46881 26.2539 9.53137 28.2631 11.1805 29.5571L8.89969 34.1189C8.31356 33.9608 7.698 33.8751 7.06256 33.8751C3.16819 33.875 0 37.0433 0 40.9375C0 44.8318 3.16819 48 7.06247 48C10.9567 48 14.1249 44.8318 14.1249 40.9375C14.1249 38.6836 13.0624 36.6744 11.4132 35.3804L13.6942 30.8186C14.2803 30.9767 14.8958 31.0625 15.5312 31.0625C19.4256 31.0625 22.5938 27.8943 22.5938 24C22.5938 21.7461 21.5312 19.7369 19.882 18.443L22.1629 13.8812C22.749 14.0393 23.3646 14.125 24 14.125C24.6354 14.125 25.251 14.0392 25.8371 13.8812L28.118 18.4429C26.4688 19.7369 25.4062 21.7461 25.4062 24C25.4062 26.2539 26.4688 28.2631 28.118 29.5571L25.8371 34.1188C25.251 33.9608 24.6354 33.875 24 33.875C20.1057 33.875 16.9375 37.0433 16.9375 40.9375C16.9375 44.8318 20.1057 48 24 48C27.8943 48 31.0625 44.8318 31.0625 40.9375C31.0625 38.6836 29.9999 36.6744 28.3507 35.3804L30.6317 30.8186C31.2178 30.9767 31.8334 31.0625 32.4688 31.0625C33.1043 31.0625 33.7198 30.9767 34.3059 30.8186L36.5868 35.3804C34.9376 36.6744 33.875 38.6836 33.875 40.9375C33.875 44.8318 37.0433 48 40.9375 48C44.8318 48 48 44.8318 48 40.9375C48 37.0433 44.8318 33.875 40.9375 33.875ZM7.06247 45.1875C4.719 45.1875 2.8125 43.281 2.8125 40.9375C2.8125 38.5941 4.719 36.6875 7.06247 36.6875C9.40594 36.6875 11.3124 38.5941 11.3124 40.9375C11.3124 43.281 9.40594 45.1875 7.06247 45.1875ZM15.5313 28.25C13.1878 28.25 11.2813 26.3435 11.2813 24C11.2813 21.6565 13.1878 19.75 15.5313 19.75C17.8748 19.75 19.7812 21.6565 19.7812 24C19.7812 26.3435 17.8748 28.25 15.5313 28.25ZM19.75 7.06247C19.75 4.719 21.6565 2.8125 24 2.8125C26.3435 2.8125 28.25 4.719 28.25 7.06247C28.25 9.40594 26.3435 11.3125 24 11.3125C21.6565 11.3125 19.75 9.40594 19.75 7.06247ZM24 45.1875C21.6565 45.1875 19.75 43.281 19.75 40.9375C19.75 38.5941 21.6565 36.6875 24 36.6875C26.3435 36.6875 28.25 38.5941 28.25 40.9375C28.25 43.281 26.3435 45.1875 24 45.1875ZM28.2188 24C28.2188 21.6565 30.1252 19.75 32.4687 19.75C34.8122 19.75 36.7188 21.6565 36.7188 24C36.7188 26.3435 34.8122 28.25 32.4687 28.25C30.1252 28.25 28.2188 26.3435 28.2188 24ZM40.9375 45.1875C38.5941 45.1875 36.6875 43.281 36.6875 40.9375C36.6875 38.5941 38.5941 36.6875 40.9375 36.6875C43.281 36.6875 45.1875 38.5941 45.1875 40.9375C45.1875 43.281 43.281 45.1875 40.9375 45.1875Z" fill="#D33C1F"/>
</svg>
