<svg width="48" height="48" viewBox="0 0 48 48" fill="none" xmlns="http://www.w3.org/2000/svg">
<g clip-path="url(#clip0_60702_1110)">
<path d="M46.4 0H4.80003C3.91632 0 3.20002 0.716387 3.20002 1.60001V22.4H1.60001C0.716387 22.4 0 23.1164 0 24V46.4C0 47.2836 0.716387 48 1.60001 48H24C24.8836 48 25.6 47.2836 25.6 46.4V44.8H46.4C47.2836 44.8 48 44.0836 48 43.2V1.60001C48 0.716387 47.2836 0 46.4 0ZM22.4 44.8H3.20002V25.6H22.4V44.8ZM44.8 41.6H25.6V24C25.6 23.1164 24.8836 22.4 24 22.4H6.39996V3.20002H44.8V41.6Z" fill="#D33C1F"/>
<path d="M28.8009 20.8004C29.2252 20.8003 29.6322 20.6317 29.9321 20.3316L38.4009 11.8628V16.0004C38.4009 16.884 39.1173 17.6004 40.0009 17.6004C40.8845 17.6004 41.6009 16.884 41.6009 16.0004V6.40039H32.0009C31.1172 6.40039 30.4008 7.11678 30.4008 8.0004C30.4008 8.88403 31.1172 9.60041 32.0009 9.60041H36.1384L27.6696 18.0692C27.0449 18.6941 27.045 19.7072 27.67 20.3319C27.97 20.6319 28.3768 20.8003 28.8009 20.8004Z" fill="#D33C1F"/>
</g>
<defs>
<clipPath id="clip0_60702_1110">
<rect width="48" height="48" fill="white"/>
</clipPath>
</defs>
</svg>
