<svg width="48" height="48" viewBox="0 0 48 48" fill="none" xmlns="http://www.w3.org/2000/svg">
<path d="M14.4375 22.301C14.0912 22.301 13.7449 22.1722 13.4762 21.9132L5.56686 14.2947C5.21225 13.9526 5.06542 13.4497 5.18178 12.9705C5.29675 12.4912 5.65828 12.1103 6.13063 11.969L8.56161 11.2404V4.9406C8.56161 3.34211 9.8623 2.04004 11.4622 2.04004H17.2619C18.8604 2.04004 20.1625 3.34072 20.1625 4.9406V11.2584L22.5671 11.9662C23.0381 12.1047 23.3996 12.4829 23.5201 12.958C23.6393 13.4345 23.498 13.9373 23.1475 14.2822L15.4099 21.9007C15.1398 22.1681 14.788 22.301 14.4375 22.301ZM9.19603 13.9443L14.4265 18.9821L19.5267 13.9609L18.3853 13.6257C17.7966 13.4525 17.3921 12.9109 17.3921 12.2973V4.94337C17.3921 4.87134 17.3339 4.81316 17.2619 4.81316H11.4622C11.3888 4.81316 11.332 4.86996 11.332 4.94337V12.2737C11.332 12.886 10.9303 13.4248 10.3443 13.6007L9.19603 13.9443Z" fill="#D33C1F"/>
<path d="M21.5935 45.9586C21.0048 45.9586 20.4092 45.8062 19.8607 45.4945C18.4783 44.7105 17.812 43.148 18.2012 41.6063L21.2043 29.727H10.9678C9.20451 29.727 7.69052 28.7159 7.01593 27.0869C6.34135 25.4579 6.69734 23.6724 7.944 22.4258C8.48561 21.8856 9.36243 21.8856 9.90403 22.4258C10.4442 22.9674 10.4442 23.8442 9.90403 24.3844C9.2433 25.0451 9.48709 25.807 9.57713 26.0259C9.66716 26.2447 10.0356 26.9567 10.9692 26.9567H22.9843C23.4123 26.9567 23.8154 27.1548 24.0772 27.4914C24.339 27.828 24.4318 28.2685 24.3279 28.6812L20.8885 42.2851C20.768 42.7643 21.0866 43.004 21.2292 43.0843C21.3733 43.1688 21.7418 43.317 22.0936 42.968L39.6355 25.4275C40.2962 24.7653 40.0524 24.0035 39.961 23.7846C39.871 23.5658 39.5025 22.8538 38.5689 22.8538H26.5539C26.1258 22.8538 25.7228 22.6571 25.461 22.3205C25.1992 21.9839 25.1064 21.5434 25.2102 21.1306L28.6483 7.52681C28.7702 7.04753 28.4488 6.80651 28.3075 6.72617C28.1634 6.64445 27.7936 6.49485 27.4445 6.84253L25.2006 9.08651C24.6589 9.62812 23.7835 9.62812 23.2419 9.08651C22.7003 8.54491 22.7003 7.66948 23.2419 7.12787L25.4859 4.88389C26.6093 3.75912 28.2937 3.53195 29.6747 4.31735C31.0571 5.10136 31.7234 6.66384 31.3341 8.20554L28.3311 20.0848H38.5675C40.3295 20.0848 41.8435 21.096 42.5194 22.725C43.194 24.3526 42.8394 26.1394 41.5927 27.3861L24.0509 44.928C23.3721 45.6067 22.4898 45.9586 21.5935 45.9586Z" fill="#D33C1F"/>
</svg>
