<svg width="48" height="48" viewBox="0 0 48 48" fill="none" xmlns="http://www.w3.org/2000/svg">
<path d="M37.2453 15.3675C36.9257 15.0568 36.4773 14.9155 36.0382 14.9878C35.5984 15.0597 35.2186 15.3358 35.0146 15.732C34.313 17.095 33.4218 18.3476 32.3732 19.4549C32.4778 18.6551 32.5303 17.8503 32.5303 17.0435C32.5303 15.4953 32.3229 13.9022 31.9135 12.3079C30.5674 7.07106 27.0379 2.64212 22.2298 0.156998C21.8115 -0.0593775 21.3125 -0.0515963 20.9006 0.177247C20.4888 0.406279 20.2191 0.826185 20.1822 1.29587C19.8073 6.055 17.3559 10.3848 13.4529 13.1778C13.4011 13.2151 13.3498 13.2527 13.2986 13.2902C13.1924 13.3681 13.0922 13.4415 12.9987 13.5032C12.9841 13.5129 12.9696 13.5228 12.9552 13.5331C10.5005 15.2906 8.47503 17.6334 7.09766 20.3089C5.69797 23.0304 4.98828 25.9508 4.98828 28.9888C4.98828 30.5364 5.19575 32.1295 5.60497 33.7242C7.7645 42.1295 15.3286 47.9999 23.9995 47.9999C34.4818 47.9999 43.0096 39.4715 43.0096 28.9888C43.0096 23.8194 40.9625 18.9819 37.2453 15.3675ZM23.9995 45.1875C16.6129 45.1875 10.169 40.1858 8.32916 33.0248C7.97863 31.6588 7.80078 30.3008 7.80078 28.9889C7.80078 26.4026 8.40566 23.9151 9.59844 21.5959C10.7685 19.3232 12.4883 17.3313 14.573 15.8341C14.7144 15.7397 14.8451 15.6438 14.9613 15.5587C15.0062 15.5257 15.0513 15.4927 15.0932 15.4625C19.0644 12.6207 21.7558 8.41712 22.6856 3.70281C25.8859 5.9065 28.2128 9.20762 29.1896 13.0079C29.5401 14.3733 29.7179 15.7312 29.7179 17.0436C29.7179 18.9653 29.3657 20.8773 28.671 22.7264C28.4586 23.2918 28.631 23.9298 29.0993 24.3112C29.5677 24.6925 30.2271 24.7323 30.7379 24.4101C33.0582 22.9458 35.0302 21.0025 36.5212 18.7253C38.9035 21.6142 40.1971 25.197 40.1971 28.9889C40.1971 37.9208 32.9308 45.1875 23.9995 45.1875Z" fill="#D33C1F"/>
</svg>
