<svg width="99" height="31" viewBox="0 0 99 31" fill="none" xmlns="http://www.w3.org/2000/svg">
<path d="M98.3528 16.9696C98.3528 17.6571 98.2747 18.4149 98.1184 19.243C97.9778 20.0555 97.7278 20.8134 97.3684 21.5165C97.0247 22.2196 96.5637 22.8055 95.9856 23.2743C95.4231 23.743 94.7122 23.9774 93.8528 23.9774C93.634 23.9774 93.4075 23.9618 93.1731 23.9305C92.9387 23.8993 92.7122 23.8446 92.4934 23.7665C92.2903 23.6884 92.1028 23.5868 91.9309 23.4618C91.759 23.3212 91.6262 23.1415 91.5325 22.9227L91.3215 26.2977C91.3059 26.6571 91.2903 27.0868 91.2747 27.5868C91.2747 28.0868 91.2122 28.5634 91.0872 29.0165C90.9778 29.4696 90.7825 29.8524 90.5012 30.1649C90.2356 30.493 89.845 30.6571 89.3293 30.6571C89.0325 30.6571 88.7825 30.5009 88.5793 30.1884C88.3762 29.8915 88.2122 29.5087 88.0872 29.0399C87.9778 28.5712 87.8918 28.0477 87.8293 27.4696C87.7668 26.8915 87.7278 26.3368 87.7122 25.8055C87.6965 25.2743 87.6887 24.7899 87.6887 24.3524C87.6887 23.9149 87.6887 23.5946 87.6887 23.3915C87.6887 22.3446 87.6809 21.3055 87.6653 20.2743C87.6497 19.2274 87.6418 18.1805 87.6418 17.1337C87.6418 16.9462 87.6418 16.6571 87.6418 16.2665C87.6418 15.8602 87.6575 15.4227 87.6887 14.954C87.72 14.4852 87.7668 14.0009 87.8293 13.5009C87.9075 13.0009 88.0168 12.5477 88.1575 12.1415C88.2981 11.7196 88.4778 11.3837 88.6965 11.1337C88.9153 10.868 89.1809 10.7352 89.4934 10.7352C89.6965 10.7352 89.8762 10.7977 90.0325 10.9227C90.2043 11.0321 90.345 11.1805 90.4543 11.368C90.5793 11.5399 90.6809 11.7274 90.759 11.9305C90.8372 12.1337 90.8997 12.3212 90.9465 12.493C91.4309 11.9462 91.9856 11.5321 92.6106 11.2509C93.2512 10.9696 93.9309 10.829 94.6497 10.829C95.3997 10.829 96.009 11.0399 96.4778 11.4618C96.9622 11.8837 97.3372 12.4071 97.6028 13.0321C97.884 13.6571 98.0793 14.329 98.1887 15.0477C98.2981 15.7509 98.3528 16.3915 98.3528 16.9696ZM95.0012 16.7821C95.0012 16.5477 94.9778 16.3134 94.9309 16.079C94.8997 15.829 94.8293 15.6024 94.72 15.3993C94.6262 15.1805 94.4856 15.0087 94.2981 14.8837C94.1106 14.743 93.8762 14.6727 93.595 14.6727C93.22 14.6727 92.8215 14.7977 92.3997 15.0477C91.9934 15.2821 91.6887 15.5555 91.4856 15.868C91.4075 15.993 91.3606 16.1962 91.345 16.4774C91.3293 16.7587 91.3215 16.9696 91.3215 17.1102C91.3215 17.2196 91.3215 17.368 91.3215 17.5555C91.3372 17.7274 91.3528 17.9071 91.3684 18.0946C91.384 18.2821 91.3997 18.4618 91.4153 18.6337C91.4465 18.8055 91.4856 18.9384 91.5325 19.0321C91.5793 19.1727 91.6809 19.3055 91.8372 19.4305C91.9934 19.5399 92.1653 19.6415 92.3528 19.7352C92.5403 19.829 92.7278 19.8993 92.9153 19.9462C93.1184 19.993 93.2903 20.0165 93.4309 20.0165C93.759 20.0165 94.0247 19.8915 94.2278 19.6415C94.4309 19.3915 94.5872 19.0946 94.6965 18.7509C94.8215 18.4071 94.8997 18.0555 94.9309 17.6962C94.9778 17.3212 95.0012 17.0165 95.0012 16.7821Z" fill="#F3F5FA"/>
<path d="M85.9722 20.6493C85.9722 20.9305 85.9565 21.2977 85.9253 21.7509C85.9097 22.204 85.8472 22.6493 85.7378 23.0868C85.6284 23.5087 85.4565 23.8759 85.2222 24.1884C84.9878 24.5009 84.6597 24.6571 84.2378 24.6571C83.6597 24.6571 83.2144 24.4696 82.9019 24.0946C82.5894 23.7196 82.4409 23.2509 82.4565 22.6884C81.9565 23.1259 81.3862 23.4696 80.7456 23.7196C80.1206 23.9696 79.48 24.0946 78.8237 24.0946C78.3706 24.0946 77.9409 23.9852 77.5347 23.7665C77.1284 23.5477 76.769 23.2665 76.4565 22.9227C76.144 22.579 75.894 22.1962 75.7065 21.7743C75.519 21.3368 75.4253 20.9071 75.4253 20.4852C75.4253 19.7352 75.6519 19.079 76.105 18.5165C76.5737 17.954 77.144 17.4774 77.8159 17.0868C78.4878 16.6805 79.1987 16.3602 79.9487 16.1259C80.7144 15.8915 81.394 15.7352 81.9878 15.6571C81.9878 15.579 81.9878 15.5087 81.9878 15.4462C82.0034 15.3837 82.0112 15.3134 82.0112 15.2352C82.0112 14.7509 81.8784 14.3602 81.6128 14.0634C81.3472 13.7665 80.9722 13.618 80.4878 13.618C80.0972 13.618 79.7612 13.6884 79.48 13.829C79.1987 13.954 78.9331 14.1024 78.6831 14.2743C78.4331 14.4305 78.1831 14.579 77.9331 14.7196C77.6831 14.8446 77.4019 14.9071 77.0894 14.9071C76.7456 14.9071 76.4487 14.7977 76.1987 14.579C75.9644 14.3602 75.8472 14.079 75.8472 13.7352C75.8472 13.2196 75.9956 12.7509 76.2925 12.329C76.605 11.9071 76.9878 11.5555 77.4409 11.2743C77.9097 10.9774 78.4097 10.7509 78.9409 10.5946C79.4878 10.4227 79.9878 10.3368 80.4409 10.3368C80.8628 10.3368 81.2847 10.3915 81.7065 10.5009C82.1284 10.5946 82.5269 10.7509 82.9019 10.9696C83.2769 11.1727 83.6128 11.4305 83.9097 11.743C84.2222 12.0399 84.4722 12.3915 84.6597 12.7977C84.9409 13.3759 85.1675 13.993 85.3394 14.6493C85.5112 15.2899 85.644 15.954 85.7378 16.6415C85.8315 17.3134 85.894 17.993 85.9253 18.6805C85.9565 19.3524 85.9722 20.0087 85.9722 20.6493ZM82.2222 19.8993L82.1519 18.3055C82.1206 18.3055 82.0894 18.3055 82.0581 18.3055C82.0269 18.2899 81.9956 18.2821 81.9644 18.2821C81.7612 18.2821 81.5034 18.3368 81.1909 18.4462C80.894 18.5399 80.605 18.6805 80.3237 18.868C80.0425 19.0399 79.8003 19.2352 79.5972 19.454C79.4097 19.6727 79.3159 19.8993 79.3159 20.1337C79.3159 20.3524 79.394 20.5009 79.5503 20.579C79.7065 20.6571 79.8862 20.6962 80.0894 20.6962C80.4331 20.6962 80.8003 20.6102 81.1909 20.4384C81.5815 20.2509 81.9253 20.0712 82.2222 19.8993Z" fill="#F3F5FA"/>
<path d="M75.3259 8.43835C75.3259 8.51648 75.2478 8.74304 75.0916 9.11804C74.9509 9.49304 74.7556 9.95398 74.5056 10.5009C74.2556 11.0477 73.9666 11.6649 73.6384 12.3524C73.3259 13.0243 72.9978 13.7196 72.6541 14.4384C72.3103 15.1415 71.9744 15.8368 71.6462 16.5243C71.3181 17.2118 71.0134 17.8368 70.7322 18.3993C70.4666 18.9462 70.24 19.4149 70.0525 19.8055C69.865 20.1805 69.7478 20.4149 69.7009 20.5087C70.1853 20.3524 70.6775 20.2274 71.1775 20.1337C71.6931 20.0243 72.2087 19.9696 72.7244 19.9696C72.9744 19.9696 73.24 19.993 73.5212 20.0399C73.8025 20.0712 74.0603 20.1493 74.2947 20.2743C74.5447 20.3837 74.7478 20.5399 74.9041 20.743C75.0759 20.9305 75.1619 21.1884 75.1619 21.5165C75.1619 21.8602 75.0447 22.1727 74.8103 22.454C74.5759 22.7196 74.2712 22.954 73.8962 23.1571C73.5369 23.3602 73.1228 23.5321 72.6541 23.6727C72.1853 23.8134 71.7166 23.9305 71.2478 24.0243C70.7791 24.118 70.3337 24.1805 69.9119 24.2118C69.49 24.2587 69.1384 24.2821 68.8572 24.2821C68.4978 24.2821 68.0994 24.2665 67.6619 24.2352C67.24 24.204 66.8337 24.118 66.4431 23.9774C66.0525 23.8368 65.7244 23.6337 65.4587 23.368C65.2087 23.0868 65.0837 22.6962 65.0837 22.1962C65.0837 21.8524 65.1775 21.3915 65.365 20.8134C65.5681 20.2196 65.8025 19.618 66.0681 19.0087C66.3337 18.3837 66.6072 17.7899 66.8884 17.2274C67.1853 16.6493 67.4197 16.1962 67.5916 15.868C68.1228 14.8837 68.6541 13.9071 69.1853 12.9384C69.7322 11.954 70.2634 10.9618 70.7791 9.96179C70.2322 10.2743 69.6072 10.5634 68.9041 10.829C68.2009 11.079 67.5369 11.204 66.9119 11.204C66.6931 11.204 66.4587 11.1727 66.2087 11.1102C65.9744 11.0477 65.7556 10.9618 65.5525 10.8524C65.365 10.7274 65.2087 10.5712 65.0837 10.3837C64.9587 10.1962 64.8962 9.97742 64.8962 9.72742C64.8962 9.32117 65.0291 8.94617 65.2947 8.60242C65.5603 8.25867 65.9041 7.94617 66.3259 7.66492C66.7634 7.38367 67.2478 7.13367 67.7791 6.91492C68.3259 6.69617 68.8728 6.51648 69.4197 6.37585C69.9666 6.23523 70.4822 6.12585 70.9666 6.04773C71.4666 5.9696 71.8884 5.93054 72.2322 5.93054C73.1384 5.93054 73.8806 6.11023 74.4587 6.4696C75.0369 6.82898 75.3259 7.48523 75.3259 8.43835Z" fill="#F3F5FA"/>
<path d="M60.6953 24.6102C60.4297 24.6102 60.2188 24.4852 60.0625 24.2352C59.9062 24.0009 59.7891 23.7274 59.7109 23.4149C59.6328 23.1024 59.5781 22.7899 59.5469 22.4774C59.5312 22.1493 59.5234 21.8993 59.5234 21.7274C59.5234 21.2587 59.5469 20.7899 59.5938 20.3212C59.6562 19.8524 59.7188 19.3837 59.7812 18.9149C59.8594 18.4462 59.9219 17.9774 59.9688 17.5087C60.0312 17.0399 60.0625 16.5712 60.0625 16.1024C60.0625 15.9149 60.0547 15.7118 60.0391 15.493C60.0234 15.2743 59.9844 15.0712 59.9219 14.8837C59.875 14.6805 59.7891 14.5165 59.6641 14.3915C59.5391 14.2665 59.375 14.204 59.1719 14.204C59.0312 14.204 58.875 14.3212 58.7031 14.5555C58.5312 14.7743 58.3672 15.0321 58.2109 15.329C58.0703 15.6102 57.9453 15.8993 57.8359 16.1962C57.7422 16.4774 57.6953 16.6884 57.6953 16.829C57.6953 17.1727 57.6953 17.5243 57.6953 17.8837C57.7109 18.2274 57.7188 18.579 57.7188 18.9384V20.2977C57.7031 20.579 57.6797 20.868 57.6484 21.1649C57.6172 21.4618 57.5703 21.7509 57.5078 22.0321C57.4609 22.3134 57.3906 22.5868 57.2969 22.8524C57.2031 23.1024 57.0781 23.329 56.9219 23.5321C56.7812 23.7196 56.6094 23.8759 56.4062 24.0009C56.2031 24.1259 55.9609 24.1884 55.6797 24.1884C55.3672 24.1884 55.1094 24.0868 54.9062 23.8837C54.7031 23.6805 54.5391 23.4227 54.4141 23.1102C54.2891 22.7821 54.1953 22.4227 54.1328 22.0321C54.0859 21.6259 54.0469 21.2352 54.0156 20.8602C54 20.4696 53.9922 20.118 53.9922 19.8055C54.0078 19.4774 54.0156 19.2196 54.0156 19.0321V17.9305C54.0156 17.3368 54 16.7509 53.9688 16.1727C53.9531 15.5946 53.9453 15.0165 53.9453 14.4384C53.9453 14.1259 53.9453 13.7274 53.9453 13.243C53.9609 12.7587 54.0234 12.2899 54.1328 11.8368C54.2422 11.368 54.4219 10.9696 54.6719 10.6415C54.9219 10.3134 55.2891 10.1493 55.7734 10.1493C55.9922 10.1493 56.1875 10.2196 56.3594 10.3602C56.5312 10.5009 56.6797 10.6727 56.8047 10.8759C56.9453 11.079 57.0547 11.2977 57.1328 11.5321C57.2266 11.7665 57.2969 11.9696 57.3438 12.1415C57.5 11.9227 57.6797 11.7118 57.8828 11.5087C58.1016 11.3055 58.3438 11.1259 58.6094 10.9696C58.875 10.8134 59.1719 10.6884 59.5 10.5946C59.8281 10.5009 60.2031 10.454 60.625 10.454C61.4219 10.454 62.0391 10.6493 62.4766 11.0399C62.9297 11.4149 63.2578 11.8915 63.4609 12.4696C63.6797 13.0321 63.8125 13.6415 63.8594 14.2977C63.9062 14.954 63.9297 15.5477 63.9297 16.079C63.9297 16.3446 63.9062 16.743 63.8594 17.2743C63.8125 17.7899 63.7344 18.368 63.625 19.0087C63.5312 19.6337 63.3984 20.2821 63.2266 20.954C63.0547 21.6102 62.8516 22.2118 62.6172 22.7587C62.3828 23.3055 62.1016 23.7509 61.7734 24.0946C61.4609 24.4384 61.1016 24.6102 60.6953 24.6102Z" fill="#F3F5FA"/>
<path d="M52.8616 19.7821C52.8616 20.3134 52.6897 20.8368 52.3459 21.3524C52.0178 21.8524 51.5959 22.3055 51.0803 22.7118C50.5803 23.1024 50.0413 23.4227 49.4631 23.6727C48.885 23.9071 48.3538 24.0243 47.8694 24.0243C47.0413 24.0243 46.2991 23.8212 45.6428 23.4149C45.0022 22.993 44.4631 22.4618 44.0256 21.8212C43.5881 21.1805 43.2522 20.4774 43.0178 19.7118C42.7991 18.9305 42.6897 18.1727 42.6897 17.4384C42.6897 16.6571 42.7991 15.8212 43.0178 14.9305C43.2366 14.0399 43.5647 13.2196 44.0022 12.4696C44.4553 11.7196 45.0178 11.0946 45.6897 10.5946C46.3772 10.0946 47.1897 9.8446 48.1272 9.8446C48.6584 9.8446 49.1663 9.93835 49.6506 10.1259C50.135 10.2977 50.5569 10.5477 50.9163 10.8759C51.2756 11.204 51.5647 11.5946 51.7834 12.0477C52.0022 12.5009 52.1116 13.0087 52.1116 13.5712C52.1116 14.3055 51.9553 14.993 51.6428 15.6337C51.3303 16.2743 50.9163 16.829 50.4006 17.2977C49.885 17.7665 49.2913 18.1493 48.6194 18.4462C47.9475 18.7274 47.26 18.8837 46.5569 18.9149C46.6194 19.368 46.7991 19.6962 47.0959 19.8993C47.4084 20.1024 47.7756 20.204 48.1975 20.204C48.51 20.204 48.8147 20.1259 49.1116 19.9696C49.4084 19.8134 49.6975 19.6415 49.9788 19.454C50.26 19.2509 50.5334 19.0712 50.7991 18.9149C51.0803 18.7587 51.3616 18.6805 51.6428 18.6805C51.9553 18.6805 52.2366 18.7821 52.4866 18.9852C52.7366 19.1884 52.8616 19.454 52.8616 19.7821ZM49.0647 14.0399C49.0647 13.8368 49.01 13.6259 48.9006 13.4071C48.7913 13.1884 48.6194 13.079 48.385 13.079C48.0413 13.079 47.7522 13.1727 47.5178 13.3602C47.2834 13.5321 47.0881 13.7587 46.9319 14.0399C46.7756 14.3055 46.6506 14.5946 46.5569 14.9071C46.4788 15.2196 46.4319 15.5087 46.4163 15.7743C46.635 15.7274 46.8928 15.6649 47.1897 15.5868C47.5022 15.5087 47.7913 15.4071 48.0569 15.2821C48.3381 15.1415 48.5725 14.9696 48.76 14.7665C48.9631 14.5634 49.0647 14.3212 49.0647 14.0399Z" fill="#F3F5FA"/>
<path d="M42.5903 8.43835C42.5903 8.51648 42.5122 8.74304 42.356 9.11804C42.2153 9.49304 42.02 9.95398 41.77 10.5009C41.52 11.0477 41.231 11.6649 40.9028 12.3524C40.5903 13.0243 40.2622 13.7196 39.9185 14.4384C39.5747 15.1415 39.2388 15.8368 38.9106 16.5243C38.5825 17.2118 38.2778 17.8368 37.9966 18.3993C37.731 18.9462 37.5044 19.4149 37.3169 19.8055C37.1294 20.1805 37.0122 20.4149 36.9653 20.5087C37.4497 20.3524 37.9419 20.2274 38.4419 20.1337C38.9575 20.0243 39.4731 19.9696 39.9888 19.9696C40.2388 19.9696 40.5044 19.993 40.7856 20.0399C41.0669 20.0712 41.3247 20.1493 41.5591 20.2743C41.8091 20.3837 42.0122 20.5399 42.1685 20.743C42.3403 20.9305 42.4263 21.1884 42.4263 21.5165C42.4263 21.8602 42.3091 22.1727 42.0747 22.454C41.8403 22.7196 41.5356 22.954 41.1606 23.1571C40.8013 23.3602 40.3872 23.5321 39.9185 23.6727C39.4497 23.8134 38.981 23.9305 38.5122 24.0243C38.0435 24.118 37.5981 24.1805 37.1763 24.2118C36.7544 24.2587 36.4028 24.2821 36.1216 24.2821C35.7622 24.2821 35.3638 24.2665 34.9263 24.2352C34.5044 24.204 34.0981 24.118 33.7075 23.9774C33.3169 23.8368 32.9888 23.6337 32.7231 23.368C32.4731 23.0868 32.3481 22.6962 32.3481 22.1962C32.3481 21.8524 32.4419 21.3915 32.6294 20.8134C32.8325 20.2196 33.0669 19.618 33.3325 19.0087C33.5981 18.3837 33.8716 17.7899 34.1528 17.2274C34.4497 16.6493 34.6841 16.1962 34.856 15.868C35.3872 14.8837 35.9185 13.9071 36.4497 12.9384C36.9966 11.954 37.5278 10.9618 38.0435 9.96179C37.4966 10.2743 36.8716 10.5634 36.1685 10.829C35.4653 11.079 34.8013 11.204 34.1763 11.204C33.9575 11.204 33.7231 11.1727 33.4731 11.1102C33.2388 11.0477 33.02 10.9618 32.8169 10.8524C32.6294 10.7274 32.4731 10.5712 32.3481 10.3837C32.2231 10.1962 32.1606 9.97742 32.1606 9.72742C32.1606 9.32117 32.2935 8.94617 32.5591 8.60242C32.8247 8.25867 33.1685 7.94617 33.5903 7.66492C34.0278 7.38367 34.5122 7.13367 35.0435 6.91492C35.5903 6.69617 36.1372 6.51648 36.6841 6.37585C37.231 6.23523 37.7466 6.12585 38.231 6.04773C38.731 5.9696 39.1528 5.93054 39.4966 5.93054C40.4028 5.93054 41.145 6.11023 41.7231 6.4696C42.3013 6.82898 42.5903 7.48523 42.5903 8.43835Z" fill="#F3F5FA"/>
<g clip-path="url(#clip0_53_473)">
<path d="M0.043457 15.4457H14.5435V0.953979C13.9358 4.57956 12.2119 7.92482 9.61245 10.5228C7.01299 13.1208 3.66766 14.8419 0.043457 15.4457Z" fill="#F3F5FA"/>
<path d="M14.5435 29.9539V15.4457H29.0435C25.4164 16.0494 22.0688 17.7725 19.4689 20.3739C16.8689 22.9753 15.1468 26.3249 14.5435 29.9539Z" fill="#F3F5FA"/>
</g>
<defs>
<clipPath id="clip0_53_473">
<rect width="29" height="29" fill="white" transform="translate(0.043457 0.953979)"/>
</clipPath>
</defs>
</svg>
