<svg width="123" height="25" viewBox="0 0 123 25" fill="none" xmlns="http://www.w3.org/2000/svg">
<path d="M105.628 19.9812V8.83024H108.211V10.3632C109.072 9.41824 110.332 8.62024 112.033 8.62024C113.902 8.62024 114.637 9.35524 115.078 10.4472C115.96 9.48124 117.283 8.62024 118.984 8.62024C121.252 8.62024 122.239 9.98524 122.239 11.9802V19.9812H119.656V12.6312C119.656 11.3922 119.299 10.8252 118.081 10.8252C117.031 10.8252 116.191 11.4132 115.225 12.2742V19.9812H112.642V12.6312C112.642 11.3922 112.285 10.8252 111.067 10.8252C110.038 10.8252 109.177 11.4132 108.211 12.2742V19.9812H105.628Z" fill="#F5F5FF"/>
<path d="M96.8199 20.1492C95.0139 20.1492 93.6699 19.1412 93.6699 17.2932C93.6699 14.8782 95.7279 13.2612 100.936 12.6732V12.3372C100.936 11.2242 100.348 10.7412 99.1089 10.7412C97.5549 10.7412 96.2949 11.4972 95.3499 12.2532L94.0899 10.6362C95.2869 9.54424 97.1559 8.62024 99.4659 8.62024C102.448 8.62024 103.477 10.0482 103.477 12.6522V17.2512C103.477 18.5952 103.561 19.4142 103.792 19.9812H101.188C101.041 19.5192 100.936 19.1832 100.936 18.5532C99.8019 19.7082 98.4789 20.1492 96.8199 20.1492ZM97.7649 18.1542C99.0879 18.1542 100.117 17.6502 100.936 16.8732V14.4162C97.8489 14.8362 96.2109 15.5922 96.2109 16.8102C96.2109 17.6922 96.8199 18.1542 97.7649 18.1542Z" fill="#F5F5FF"/>
<path d="M86.7083 19.9812V8.83024H89.2912V10.6572H89.3332C90.0262 9.54424 91.2232 8.62024 93.3442 8.62024H93.5122L93.4282 10.9932C93.3022 10.9722 92.8822 10.9512 92.7352 10.9512C91.0762 10.9512 90.0262 11.7282 89.2912 12.9252V19.9812H86.7083Z" fill="#F5F5FF"/>
<path d="M79.2132 24.3072C75.3702 24.3072 73.8372 23.1942 73.8372 21.5772C73.8372 20.4642 74.5302 19.6662 75.6642 19.2252C75.0972 18.9312 74.8032 18.4692 74.8032 17.8602C74.8032 17.0202 75.4752 16.3272 76.3152 15.8232C75.1812 15.1092 74.5512 13.9752 74.5512 12.6102C74.5512 10.3212 76.3152 8.62024 79.2342 8.62024C80.7672 8.62024 81.9012 9.12424 82.6572 9.79624C83.3712 9.22924 84.5052 8.78824 85.4292 8.70424V10.8042C84.9252 10.8042 84.2112 10.8672 83.4762 11.0982C83.7282 11.4972 83.8752 12.0222 83.8752 12.6102C83.8752 14.9412 82.1322 16.5792 79.2342 16.5792C78.6042 16.5792 78.2262 16.4952 77.6802 16.3482C77.3442 16.5372 77.1132 16.7682 77.1132 17.0622C77.1132 17.5032 77.4072 17.6502 78.3942 17.7342L80.3682 17.8602C83.6652 18.0702 84.9672 18.9522 84.9672 20.9052C84.9672 23.1942 82.6572 24.3072 79.2132 24.3072ZM79.2762 14.7942C80.6832 14.7942 81.5232 14.0592 81.5232 12.6942C81.5232 11.3082 80.7252 10.5522 79.2552 10.5522C77.8272 10.5522 76.9872 11.3292 76.9872 12.6942C76.9872 14.0592 77.8482 14.7942 79.2762 14.7942ZM79.6122 22.4382C81.5022 22.4382 82.6782 21.9342 82.6782 21.1362C82.6782 20.3382 82.1112 20.0442 79.8432 19.8972L77.9112 19.7712C77.6802 19.7712 77.4702 19.7502 77.2392 19.7082C76.5042 20.0442 76.2102 20.5692 76.2102 21.1362C76.2102 22.1232 77.3442 22.4382 79.6122 22.4382Z" fill="#F5F5FF"/>
<path d="M71.4995 20.1282C68.6645 20.1282 68.0555 19.0782 68.0555 17.0622V10.8882H66.1235V8.83019H68.0555V4.94519H70.6385V8.83019H73.5155V10.8882H70.6385V16.4112C70.6385 17.6082 70.9955 18.0912 72.2765 18.0912C72.6545 18.0912 73.1375 18.0282 73.3895 17.9442V19.9812C73.1165 20.0442 72.1505 20.1282 71.4995 20.1282Z" fill="#F5F5FF"/>
<path d="M60.9149 19.9812V10.8882H58.9829V8.83017H60.9149V7.69617C60.9149 5.82717 61.6919 4.37817 64.5269 4.37817C65.0099 4.37817 65.8709 4.46217 66.0599 4.48317V6.47817C65.8919 6.43617 65.4719 6.39417 65.1779 6.39417C64.2539 6.39417 63.4979 6.64617 63.4979 7.84317V8.83017H65.9339V10.8882H63.4979V19.9812H60.9149Z" fill="#F5F5FF"/>
<path d="M51.141 20.1492C49.335 20.1492 47.991 19.1412 47.991 17.2932C47.991 14.8782 50.049 13.2612 55.257 12.6732V12.3372C55.257 11.2242 54.669 10.7412 53.43 10.7412C51.876 10.7412 50.616 11.4972 49.671 12.2532L48.411 10.6362C49.608 9.54424 51.477 8.62024 53.787 8.62024C56.769 8.62024 57.798 10.0482 57.798 12.6522V17.2512C57.798 18.5952 57.882 19.4142 58.113 19.9812H55.509C55.362 19.5192 55.257 19.1832 55.257 18.5532C54.123 19.7082 52.8 20.1492 51.141 20.1492ZM52.086 18.1542C53.409 18.1542 54.438 17.6502 55.257 16.8732V14.4162C52.17 14.8362 50.532 15.5922 50.532 16.8102C50.532 17.6922 51.141 18.1542 52.086 18.1542Z" fill="#F5F5FF"/>
<path d="M41.0293 19.9812V8.83024H43.6123V10.6572H43.6543C44.3473 9.54424 45.5443 8.62024 47.6653 8.62024H47.8333L47.7493 10.9932C47.6233 10.9722 47.2033 10.9512 47.0563 10.9512C45.3973 10.9512 44.3473 11.7282 43.6123 12.9252V19.9812H41.0293Z" fill="#F5F5FF"/>
<path d="M32.9905 20.2752C29.0005 20.2752 26.1655 17.5242 26.1655 12.1692C26.1655 6.96122 29.0845 4.14722 32.9905 4.14722C36.6025 4.14722 38.3245 6.14222 39.0175 8.97722L36.5185 9.69122C35.9305 7.63322 35.0275 6.58322 32.9695 6.58322C30.3445 6.58322 28.8115 8.62022 28.8115 12.1482C28.8115 15.8442 30.3865 17.8812 33.0115 17.8812C35.0275 17.8812 36.1615 16.8732 36.7495 14.5422L39.2485 15.1092C38.4925 18.1962 36.5815 20.2752 32.9905 20.2752Z" fill="#F5F5FF"/>
<g clip-path="url(#clip0_53_529)">
<path d="M10.6545 0.981201V11.4812L6.07476 6.90014C5.64912 6.47108 5.40896 5.89197 5.40601 5.28752V0.981201H10.6545Z" fill="#F5F5FF"/>
<path d="M21.1575 11.4812H10.6545L15.2403 6.90013C15.454 6.68426 15.709 6.51375 15.9901 6.39881C16.2712 6.28386 16.5727 6.22685 16.8763 6.23119H21.1814L21.1575 11.4812Z" fill="#F5F5FF"/>
<path d="M10.6545 21.9812V11.4812L15.2343 16.0682C15.4504 16.2818 15.621 16.5368 15.736 16.8181C15.8509 17.0993 15.9077 17.4009 15.903 17.7048V22.0111L10.6545 21.9812Z" fill="#F5F5FF"/>
<path d="M0.157471 11.4812H10.6545L6.07473 16.0623C5.64725 16.4902 5.06736 16.7308 4.46256 16.7312H0.157471V11.4812Z" fill="#F5F5FF"/>
</g>
<defs>
<clipPath id="clip0_53_529">
<rect width="21" height="21" fill="white" transform="translate(0.157471 0.981201)"/>
</clipPath>
</defs>
</svg>
