<svg width="125" height="19" viewBox="0 0 125 19" fill="none" xmlns="http://www.w3.org/2000/svg">
<path d="M110.554 12.298C110.554 11.31 110.727 10.4173 111.074 9.61997C111.438 8.8053 111.923 8.11197 112.53 7.53997C113.136 6.96797 113.856 6.52597 114.688 6.21397C115.52 5.90197 116.404 5.74597 117.34 5.74597C118.276 5.74597 119.16 5.90197 119.992 6.21397C120.824 6.52597 121.543 6.96797 122.15 7.53997C122.756 8.11197 123.233 8.8053 123.58 9.61997C123.944 10.4173 124.126 11.31 124.126 12.298C124.126 13.286 123.944 14.1873 123.58 15.002C123.233 15.8166 122.756 16.5186 122.15 17.108C121.543 17.68 120.824 18.1306 119.992 18.46C119.16 18.7893 118.276 18.954 117.34 18.954C116.404 18.954 115.52 18.7893 114.688 18.46C113.856 18.1306 113.136 17.68 112.53 17.108C111.923 16.5186 111.438 15.8166 111.074 15.002C110.727 14.1873 110.554 13.286 110.554 12.298ZM113.726 12.298C113.726 12.7833 113.795 13.2686 113.934 13.754C114.09 14.2393 114.315 14.6726 114.61 15.054C114.904 15.4353 115.277 15.7473 115.728 15.99C116.178 16.2326 116.716 16.354 117.34 16.354C117.964 16.354 118.501 16.2326 118.952 15.99C119.402 15.7473 119.775 15.4353 120.07 15.054C120.364 14.6726 120.581 14.2393 120.72 13.754C120.876 13.2686 120.954 12.7833 120.954 12.298C120.954 11.8126 120.876 11.336 120.72 10.868C120.581 10.3826 120.364 9.94931 120.07 9.56797C119.775 9.18664 119.402 8.8833 118.952 8.65797C118.501 8.4153 117.964 8.29397 117.34 8.29397C116.716 8.29397 116.178 8.4153 115.728 8.65797C115.277 8.8833 114.904 9.18664 114.61 9.56797C114.315 9.94931 114.09 10.3826 113.934 10.868C113.795 11.336 113.726 11.8126 113.726 12.298Z" fill="#EBF3EF"/>
<path d="M105.417 6.11H108.537V18.59H105.417V6.11ZM104.975 1.872C104.975 1.36933 105.157 0.936 105.521 0.572001C105.902 0.190667 106.379 0 106.951 0C107.523 0 107.999 0.182 108.381 0.546001C108.779 0.892667 108.979 1.33467 108.979 1.872C108.979 2.40933 108.779 2.86 108.381 3.224C107.999 3.57067 107.523 3.744 106.951 3.744C106.379 3.744 105.902 3.562 105.521 3.198C105.157 2.81667 104.975 2.37467 104.975 1.872Z" fill="#EBF3EF"/>
<path d="M91.2024 6.10999H94.6084L97.8844 15.21H97.9364L101.238 6.10999H104.54L99.5744 18.59H96.2464L91.2024 6.10999Z" fill="#EBF3EF"/>
<path d="M77.5173 12.298C77.5173 11.31 77.6907 10.4173 78.0373 9.61997C78.4013 8.8053 78.8867 8.11197 79.4933 7.53997C80.1 6.96797 80.8193 6.52597 81.6513 6.21397C82.4833 5.90197 83.3673 5.74597 84.3033 5.74597C85.2393 5.74597 86.1233 5.90197 86.9553 6.21397C87.7873 6.52597 88.5067 6.96797 89.1133 7.53997C89.72 8.11197 90.1967 8.8053 90.5433 9.61997C90.9073 10.4173 91.0893 11.31 91.0893 12.298C91.0893 13.286 90.9073 14.1873 90.5433 15.002C90.1967 15.8166 89.72 16.5186 89.1133 17.108C88.5067 17.68 87.7873 18.1306 86.9553 18.46C86.1233 18.7893 85.2393 18.954 84.3033 18.954C83.3673 18.954 82.4833 18.7893 81.6513 18.46C80.8193 18.1306 80.1 17.68 79.4933 17.108C78.8867 16.5186 78.4013 15.8166 78.0373 15.002C77.6907 14.1873 77.5173 13.286 77.5173 12.298ZM80.6893 12.298C80.6893 12.7833 80.7587 13.2686 80.8973 13.754C81.0533 14.2393 81.2787 14.6726 81.5733 15.054C81.868 15.4353 82.2407 15.7473 82.6913 15.99C83.142 16.2326 83.6793 16.354 84.3033 16.354C84.9273 16.354 85.4647 16.2326 85.9153 15.99C86.366 15.7473 86.7387 15.4353 87.0333 15.054C87.328 14.6726 87.5447 14.2393 87.6833 13.754C87.8393 13.2686 87.9173 12.7833 87.9173 12.298C87.9173 11.8126 87.8393 11.336 87.6833 10.868C87.5447 10.3826 87.328 9.94931 87.0333 9.56797C86.7387 9.18664 86.366 8.8833 85.9153 8.65797C85.4647 8.4153 84.9273 8.29397 84.3033 8.29397C83.6793 8.29397 83.142 8.4153 82.6913 8.65797C82.2407 8.8833 81.868 9.18664 81.5733 9.56797C81.2787 9.94931 81.0533 10.3826 80.8973 10.868C80.7587 11.336 80.6893 11.8126 80.6893 12.298Z" fill="#EBF3EF"/>
<path d="M64.1526 6.10997H67.1166V8.11197H67.1686C67.4459 7.48797 67.9226 6.94197 68.5986 6.47397C69.2919 5.98864 70.1066 5.74597 71.0426 5.74597C71.8573 5.74597 72.5506 5.89331 73.1226 6.18797C73.7119 6.46531 74.1886 6.83797 74.5526 7.30597C74.9339 7.77397 75.2113 8.3113 75.3846 8.91797C75.5579 9.52464 75.6446 10.1486 75.6446 10.79V18.59H72.5246V11.674C72.5246 11.31 72.4986 10.9286 72.4466 10.53C72.3946 10.1313 72.2819 9.77597 72.1086 9.46397C71.9353 9.13464 71.6926 8.86597 71.3806 8.65797C71.0859 8.44997 70.6873 8.34597 70.1846 8.34597C69.6819 8.34597 69.2486 8.44997 68.8846 8.65797C68.5206 8.84864 68.2173 9.09997 67.9746 9.41197C67.7493 9.72397 67.5759 10.088 67.4546 10.504C67.3333 10.9026 67.2726 11.31 67.2726 11.726V18.59H64.1526V6.10997Z" fill="#EBF3EF"/>
<path d="M50.0598 6.10997H53.0238V8.11197H53.0758C53.3531 7.48797 53.8298 6.94197 54.5058 6.47397C55.1991 5.98864 56.0138 5.74597 56.9498 5.74597C57.7645 5.74597 58.4578 5.89331 59.0298 6.18797C59.6191 6.46531 60.0958 6.83797 60.4598 7.30597C60.8411 7.77397 61.1185 8.3113 61.2918 8.91797C61.4651 9.52464 61.5518 10.1486 61.5518 10.79V18.59H58.4318V11.674C58.4318 11.31 58.4058 10.9286 58.3538 10.53C58.3018 10.1313 58.1891 9.77597 58.0158 9.46397C57.8425 9.13464 57.5998 8.86597 57.2878 8.65797C56.9931 8.44997 56.5945 8.34597 56.0918 8.34597C55.5891 8.34597 55.1558 8.44997 54.7918 8.65797C54.4278 8.84864 54.1245 9.09997 53.8818 9.41197C53.6565 9.72397 53.4831 10.088 53.3618 10.504C53.2405 10.9026 53.1798 11.31 53.1798 11.726V18.59H50.0598V6.10997Z" fill="#EBF3EF"/>
<path d="M44.1947 6.11H47.3147V18.59H44.1947V6.11ZM43.7527 1.872C43.7527 1.36933 43.9347 0.936 44.2987 0.572001C44.68 0.190667 45.1567 0 45.7287 0C46.3007 0 46.7774 0.182 47.1587 0.546001C47.5574 0.892667 47.7567 1.33467 47.7567 1.872C47.7567 2.40933 47.5574 2.86 47.1587 3.224C46.7774 3.57067 46.3007 3.744 45.7287 3.744C45.1567 3.744 44.68 3.562 44.2987 3.198C43.9347 2.81667 43.7527 2.37467 43.7527 1.872Z" fill="#EBF3EF"/>
<path d="M17.8038 0.589966H16.7498V12.4646H17.8038V0.589966Z" fill="#EBF3EF"/>
<path d="M24.2348 2.07756L23.2605 1.67542L18.7333 12.6525L19.7076 13.0546L24.2348 2.07756Z" fill="#EBF3EF"/>
<path d="M29.6291 5.89951L28.8818 5.15588L20.5103 13.5745L21.2576 14.3181L29.6291 5.89951Z" fill="#EBF3EF"/>
<path d="M33.1509 11.5001L32.7437 10.5276L21.7953 15.1158L22.2026 16.0883L33.1509 11.5001Z" fill="#EBF3EF"/>
<path d="M34.2708 18.0217L34.2651 16.9673L22.3951 17.0315L22.4008 18.0859L34.2708 18.0217Z" fill="#EBF3EF"/>
<path d="M0.270668 17.286L0.291748 18.3405L12.162 18.103L12.1409 17.0486L0.270668 17.286Z" fill="#EBF3EF"/>
<path d="M1.67602 10.8552L1.28955 11.8362L12.3331 16.1902L12.7195 15.2092L1.67602 10.8552Z" fill="#EBF3EF"/>
<path d="M5.42133 5.41849L4.68994 6.17773L13.2373 14.4176L13.9687 13.6584L5.42133 5.41849Z" fill="#EBF3EF"/>
<path d="M10.9546 1.80205L9.98901 2.22485L14.7488 13.103L15.7144 12.6802L10.9546 1.80205Z" fill="#EBF3EF"/>
<path d="M21.0663 0.991611L19.7111 7.93312C19.368 7.8469 19.0203 7.77985 18.6697 7.73228L20.0248 0.790771L21.0663 0.991611Z" fill="#EBF3EF"/>
<path d="M27.1018 3.69043L23.1994 9.59009C22.9174 9.38173 22.6241 9.18898 22.321 9.01267L26.2234 3.10046L27.1018 3.69043Z" fill="#EBF3EF"/>
<path d="M31.6566 8.48548L25.7968 12.4521C25.6086 12.1508 25.4203 11.8495 25.207 11.5734L31.0543 7.60681L31.6566 8.48548Z" fill="#EBF3EF"/>
<path d="M34.0281 14.6487L27.1017 16.0797C27.0573 15.7316 26.986 15.3874 26.8884 15.0504L33.8148 13.6194L34.0281 14.6487Z" fill="#EBF3EF"/>
<path d="M7.58996 15.3014C7.51213 15.6409 7.45348 15.9845 7.41429 16.3307L0.475342 15.0754L0.663559 14.0336L7.58996 15.3014Z" fill="#EBF3EF"/>
<path d="M9.19606 11.7742C8.9953 12.0629 8.80708 12.3516 8.63141 12.6654L2.69629 8.89967L3.26094 8.021L9.19606 11.7742Z" fill="#EBF3EF"/>
<path d="M12.032 9.13813C11.728 9.31585 11.4385 9.51732 11.1662 9.74064L7.11328 3.95396L7.97908 3.35144L12.032 9.13813Z" fill="#EBF3EF"/>
<path d="M15.6455 7.76994C15.2942 7.76994 14.9429 7.90802 14.6166 7.99589L13.0732 1.10459L14.0896 0.866089L15.6455 7.76994Z" fill="#EBF3EF"/>
</svg>
