<svg width="92" height="19" viewBox="0 0 92 19" fill="none" xmlns="http://www.w3.org/2000/svg">
<path d="M85.075 0.57959H91.5261V3.03174H87.5623V5.67725H90.9724V8.13818H87.5623V15.3716H91.5261V17.8237H85.075V0.57959Z" fill="#FBFBFB"/>
<path d="M75.2754 0.57959H77.7627L80.1182 10.5815V0.57959H82.4209V17.8237H79.9336L77.666 8.13818V17.8237H75.2754V0.57959Z" fill="#FBFBFB"/>
<path d="M69.1411 4.53467L67.3833 17.8237H64.8784L67.4448 0.57959H70.855L73.4126 17.8237H70.8989L69.1411 4.53467Z" fill="#FBFBFB"/>
<path d="M57.364 17.8237V0.57959H59.8513V15.3716H63.8152V17.8237H57.364Z" fill="#FBFBFB"/>
<path d="M47.5647 0.57959H50.052V10.2036H52.2229V0.57959H54.7102V17.8237H52.2229V12.6646H50.052V17.8237H47.5647V0.57959Z" fill="#FBFBFB"/>
<path d="M42.687 5.64209V3.93701C42.687 3.15771 42.3237 2.76807 41.5972 2.76807C40.8765 2.76807 40.5161 3.15771 40.5161 3.93701V14.4839C40.5161 15.2632 40.8735 15.6528 41.5884 15.6528H41.606C42.3267 15.647 42.687 15.2573 42.687 14.4839V12.1636H45.1743V14.4839C45.1743 16.8979 43.9819 18.105 41.5972 18.105C39.2183 18.105 38.0288 16.8979 38.0288 14.4839V3.93701C38.0288 1.51709 39.2183 0.307129 41.5972 0.307129C43.9819 0.312988 45.1743 1.52295 45.1743 3.93701V5.64209H42.687Z" fill="#FBFBFB"/>
<path d="M28.4053 0.57959H30.8926L33.248 10.5815V0.57959H35.5508V17.8237H33.0635L30.7959 8.13818V17.8237H28.4053V0.57959Z" fill="#FBFBFB"/>
<path d="M25.8391 14.4751C25.8391 16.8892 24.6467 18.0991 22.262 18.105C19.8831 18.105 18.6936 16.895 18.6936 14.4751V0.57959H21.1809V14.4751C21.1809 15.2544 21.5413 15.644 22.262 15.644C22.9885 15.644 23.3518 15.2544 23.3518 14.4751V0.57959H25.8391V14.4751Z" fill="#FBFBFB"/>
<path d="M12.6472 4.53467L10.8894 17.8237H8.38452L10.9509 0.57959H14.3611L16.9187 17.8237H14.405L12.6472 4.53467Z" fill="#FBFBFB"/>
<path d="M0.870117 17.8237V0.57959H3.35742V15.3716H7.32129V17.8237H0.870117Z" fill="#FBFBFB"/>
</svg>
