<svg width="88" height="23" viewBox="0 0 88 23" fill="none" xmlns="http://www.w3.org/2000/svg">
<path d="M82.0586 18.8932C80.7466 18.8932 79.6346 18.5812 78.7226 17.9572C77.8266 17.3332 77.1546 16.5252 76.7066 15.5332C76.2746 14.5252 76.0586 13.4532 76.0586 12.3172C76.0586 11.1652 76.2746 10.0932 76.7066 9.10116C77.1546 8.09316 77.8266 7.27716 78.7226 6.65316C79.6346 6.02916 80.7546 5.71716 82.0826 5.71716C83.8426 5.71716 85.2346 6.28516 86.2586 7.42116C87.2986 8.55716 87.8186 10.1972 87.8186 12.3412V13.1332H78.8906V13.3252C78.8906 13.8852 79.0186 14.4132 79.2746 14.9092C79.5466 15.4052 79.9146 15.8052 80.3786 16.1092C80.8586 16.3972 81.4026 16.5412 82.0106 16.5412C82.6986 16.5412 83.2826 16.3812 83.7626 16.0612C84.2426 15.7252 84.6026 15.2772 84.8426 14.7172H87.6986C87.3626 15.9332 86.7146 16.9332 85.7546 17.7172C84.7946 18.5012 83.5626 18.8932 82.0586 18.8932ZM85.0106 11.2132C84.9786 10.0612 84.6906 9.22116 84.1466 8.69316C83.6186 8.14916 82.9226 7.87716 82.0586 7.87716C81.1306 7.87716 80.3866 8.18116 79.8266 8.78916C79.2826 9.38116 78.9946 10.1892 78.9626 11.2132H85.0106Z" fill="#F8F5F5"/>
<path d="M69.9357 18.8932C68.8797 18.8932 67.9677 18.6932 67.1997 18.2932C66.4317 17.8932 65.8477 17.3732 65.4477 16.7332C65.0477 16.0772 64.8477 15.3892 64.8477 14.6692V14.5252H67.7037V14.6692C67.7037 15.1652 67.9037 15.6132 68.3037 16.0132C68.7037 16.4132 69.2717 16.6132 70.0077 16.6132C70.6157 16.6132 71.1117 16.4692 71.4957 16.1812C71.8797 15.8932 72.0717 15.4932 72.0717 14.9812C72.0717 14.5332 71.9037 14.1812 71.5677 13.9252C71.2477 13.6692 70.8477 13.5092 70.3677 13.4452L68.8557 13.1572C67.8797 12.9972 67.0157 12.6372 66.2637 12.0772C65.5277 11.5012 65.1597 10.6452 65.1597 9.50916C65.1597 8.32516 65.5917 7.39716 66.4557 6.72516C67.3197 6.05316 68.4317 5.71716 69.7917 5.71716C70.7837 5.71716 71.6397 5.90117 72.3597 6.26917C73.0957 6.63716 73.6477 7.11716 74.0157 7.70916C74.3997 8.30116 74.5917 8.94116 74.5917 9.62916V9.72516H71.7357V9.65316C71.7357 9.22116 71.5677 8.81316 71.2317 8.42916C70.9117 8.04516 70.3997 7.85316 69.6957 7.85316C69.1037 7.85316 68.6317 8.00516 68.2797 8.30916C67.9277 8.59716 67.7517 8.98116 67.7517 9.46116C67.7517 9.87716 67.9117 10.2132 68.2317 10.4692C68.5677 10.7252 68.9837 10.9012 69.4797 10.9972L71.1357 11.2852C72.1757 11.4932 73.0477 11.8852 73.7517 12.4612C74.4557 13.0372 74.8077 13.8612 74.8077 14.9332C74.8077 15.7172 74.5917 16.4132 74.1597 17.0212C73.7437 17.6132 73.1597 18.0772 72.4077 18.4132C71.6717 18.7332 70.8477 18.8932 69.9357 18.8932Z" fill="#F8F5F5"/>
<path d="M61.8951 18.7972C60.7911 18.7972 59.9751 18.6292 59.4471 18.2932C58.9191 17.9412 58.5831 17.5092 58.4391 16.9972C58.3111 16.4692 58.2471 15.7972 58.2471 14.9812V0.701172H61.1511V14.4292C61.1511 15.0212 61.1751 15.4612 61.2231 15.7492C61.2871 16.0372 61.4471 16.2692 61.7031 16.4452C61.9591 16.6052 62.3671 16.6852 62.9271 16.6852C63.1351 16.6852 63.3831 16.6692 63.6711 16.6372V18.6532C63.1591 18.7492 62.5671 18.7972 61.8951 18.7972Z" fill="#F8F5F5"/>
<path d="M55.7609 18.7012H52.8329V16.5652H52.6889C52.3849 17.2212 51.9049 17.7812 51.2489 18.2452C50.6089 18.7092 49.8249 18.9412 48.8969 18.9412C47.7929 18.9412 46.9049 18.6772 46.2329 18.1492C45.5609 17.6052 45.0889 16.9332 44.8169 16.1332C44.5449 15.3332 44.4089 14.5092 44.4089 13.6612V6.02917H47.3129V13.2052C47.3129 14.2292 47.5529 15.0292 48.0329 15.6052C48.5129 16.1812 49.1769 16.4692 50.0249 16.4692C50.9369 16.4692 51.6329 16.1652 52.1129 15.5572C52.5929 14.9332 52.8329 14.1492 52.8329 13.2052V6.02917H55.7609V18.7012Z" fill="#F8F5F5"/>
<path d="M37.1378 1.90112C38.4818 1.90112 39.6018 2.17312 40.4978 2.71712C41.3938 3.26112 42.0498 3.96512 42.4658 4.82912C42.8978 5.69312 43.1138 6.61312 43.1138 7.58912C43.1138 8.56512 42.9058 9.48512 42.4898 10.3491C42.0738 11.1971 41.4178 11.8851 40.5218 12.4131C39.6258 12.9411 38.4978 13.2051 37.1378 13.2051H33.9458V18.7011H31.0898V1.90112H37.1378ZM36.7058 10.7811C37.7138 10.7811 38.5618 10.5411 39.2498 10.0611C39.9378 9.56512 40.2818 8.74112 40.2818 7.58912C40.2818 6.45312 39.9378 5.65312 39.2498 5.18912C38.5778 4.70912 37.7298 4.46912 36.7058 4.46912H33.9458V10.7811H36.7058Z" fill="#F8F5F5"/>
<g clip-path="url(#clip0_53_506)">
<path d="M0.577881 6.67548V12.669C0.577881 14.2382 3.06366 14.2446 3.06366 12.669V6.67548C3.06366 6.35142 2.93271 6.04063 2.69963 5.81149C2.46654 5.58235 2.15041 5.45361 1.82077 5.45361C1.49114 5.45361 1.175 5.58235 0.941915 5.81149C0.708828 6.04063 0.577881 6.35142 0.577881 6.67548Z" fill="#F8F5F5"/>
<path d="M21.0986 6.67552V12.6691C21.1214 12.977 21.2619 13.265 21.4919 13.4753C21.7218 13.6855 22.0242 13.8024 22.3383 13.8024C22.6523 13.8024 22.9547 13.6855 23.1846 13.4753C23.4146 13.265 23.5551 12.977 23.5779 12.6691V6.67552C23.5551 6.3676 23.4146 6.07958 23.1846 5.86934C22.9547 5.6591 22.6523 5.54224 22.3383 5.54224C22.0242 5.54224 21.7218 5.6591 21.4919 5.86934C21.2619 6.07958 21.1214 6.3676 21.0986 6.67552Z" fill="#F8F5F5"/>
<path d="M5.70654 1.88446V17.3185C5.70654 17.6426 5.83749 17.9534 6.07058 18.1825C6.30366 18.4117 6.6198 18.5404 6.94943 18.5404C7.27907 18.5404 7.5952 18.4117 7.82829 18.1825C8.06138 17.9534 8.19232 17.6426 8.19232 17.3185V1.88446C8.19232 1.5604 8.06138 1.24962 7.82829 1.02047C7.5952 0.791329 7.27907 0.662598 6.94943 0.662598C6.6198 0.662598 6.30366 0.791329 6.07058 1.02047C5.83749 1.24962 5.70654 1.5604 5.70654 1.88446Z" fill="#F8F5F5"/>
<path d="M15.9636 1.88446V17.3185C15.9636 17.6426 16.0946 17.9534 16.3277 18.1825C16.5607 18.4117 16.8769 18.5404 17.2065 18.5404C17.5361 18.5404 17.8523 18.4117 18.0854 18.1825C18.3185 17.9534 18.4494 17.6426 18.4494 17.3185V1.88446C18.4494 1.5604 18.3185 1.24962 18.0854 1.02047C17.8523 0.791329 17.5361 0.662598 17.2065 0.662598C16.8769 0.662598 16.5607 0.791329 16.3277 1.02047C16.0946 1.24962 15.9636 1.5604 15.9636 1.88446Z" fill="#F8F5F5"/>
<path d="M10.835 6.10956V21.5436C10.835 23.1128 13.3207 23.1192 13.3207 21.5436V6.10956C13.3207 4.54043 10.835 4.534 10.835 6.10956Z" fill="#F8F5F5"/>
</g>
<defs>
<clipPath id="clip0_53_506">
<rect width="23" height="22" fill="white" transform="translate(0.577881 0.701172)"/>
</clipPath>
</defs>
</svg>
