<svg width="97" height="27" viewBox="0 0 97 27" fill="none" xmlns="http://www.w3.org/2000/svg">
<path d="M95.5237 15.0792C95.5237 15.5645 95.489 15.9805 95.4197 16.3272H85.4877C85.713 17.1245 86.1463 17.7572 86.7877 18.2252C87.429 18.6759 88.1483 18.9012 88.9457 18.9012C89.587 18.9012 90.2197 18.7799 90.8437 18.5372C91.4677 18.2772 91.9877 17.8959 92.4037 17.3932L94.8217 19.4212C93.4523 21.1025 91.4503 21.9432 88.8157 21.9432C87.5677 21.9432 86.415 21.6399 85.3577 21.0332C84.3177 20.4092 83.4857 19.5772 82.8617 18.5372C82.255 17.4799 81.9517 16.3272 81.9517 15.0792C81.9517 13.8312 82.255 12.6872 82.8617 11.6472C83.4857 10.5899 84.3177 9.75788 85.3577 9.15121C86.415 8.52721 87.5677 8.21521 88.8157 8.21521C90.0637 8.21521 91.199 8.52721 92.2217 9.15121C93.2443 9.75788 94.0503 10.5899 94.6397 11.6472C95.229 12.6872 95.5237 13.8312 95.5237 15.0792ZM92.0657 13.9612C91.875 13.1119 91.485 12.4619 90.8957 12.0112C90.3237 11.5432 89.6303 11.3092 88.8157 11.3092C87.9837 11.3092 87.2643 11.5432 86.6577 12.0112C86.051 12.4792 85.6437 13.1292 85.4357 13.9612H92.0657Z" fill="#F3F3F9"/>
<path d="M79.6038 3.45715V21.6572H76.2498V3.45715H79.6038Z" fill="#F3F3F9"/>
<path d="M62.1025 3.45715V21.6572H58.7485V3.45715H62.1025ZM70.0585 21.6572L63.2465 14.7672L69.3565 8.50115H73.9585L67.7185 14.7672L74.6865 21.6572H70.0585Z" fill="#F3F3F9"/>
<path d="M56.6844 11.3612C56.5284 11.3265 56.2944 11.3092 55.9824 11.3092C54.9251 11.3092 54.0757 11.6819 53.4344 12.4272C52.7931 13.1552 52.4724 14.0912 52.4724 15.2352V21.6572H49.1184V8.50121H52.4724V10.4512C52.9404 9.77521 53.5211 9.23788 54.2144 8.83921C54.9251 8.42321 55.7484 8.21521 56.6844 8.21521V11.3612Z" fill="#F3F3F9"/>
<path d="M42.3509 19.9932C41.1549 21.2932 39.5949 21.9432 37.6709 21.9432C36.4576 21.9432 35.3396 21.6485 34.3169 21.0592C33.3116 20.4525 32.5056 19.6292 31.8989 18.5892C31.3096 17.5319 31.0149 16.3619 31.0149 15.0792C31.0149 13.7965 31.3096 12.6352 31.8989 11.5952C32.5056 10.5379 33.3116 9.71454 34.3169 9.12521C35.3396 8.51854 36.4576 8.21521 37.6709 8.21521C39.5949 8.21521 41.1549 8.86521 42.3509 10.1652V8.50121H45.7309V21.6572H42.3509V19.9932ZM42.3509 15.0792C42.3509 14.2992 42.1776 13.6059 41.8309 12.9992C41.4842 12.3752 41.0076 11.8899 40.4009 11.5432C39.7942 11.1965 39.1182 11.0232 38.3729 11.0232C37.6102 11.0232 36.9256 11.1965 36.3189 11.5432C35.7122 11.8899 35.2356 12.3752 34.8889 12.9992C34.5422 13.6059 34.3689 14.2992 34.3689 15.0792C34.3689 15.8592 34.5422 16.5612 34.8889 17.1852C35.2356 17.7919 35.7122 18.2685 36.3189 18.6152C36.9256 18.9619 37.6102 19.1352 38.3729 19.1352C39.1182 19.1352 39.7942 18.9619 40.4009 18.6152C41.0076 18.2685 41.4842 17.7919 41.8309 17.1852C42.1776 16.5612 42.3509 15.8592 42.3509 15.0792Z" fill="#F3F3F9"/>
<path d="M29.4413 15.0792C29.4413 16.3619 29.138 17.5319 28.5313 18.5892C27.942 19.6292 27.136 20.4525 26.1133 21.0592C25.108 21.6485 23.9987 21.9432 22.7853 21.9432C20.8787 21.9432 19.31 21.2932 18.0793 19.9932V26.7012H14.7253V8.50121H18.0793V10.1652C19.31 8.86521 20.8787 8.21521 22.7853 8.21521C23.9987 8.21521 25.108 8.51854 26.1133 9.12521C27.136 9.71454 27.942 10.5379 28.5313 11.5952C29.138 12.6352 29.4413 13.7965 29.4413 15.0792ZM26.0613 15.0792C26.0613 14.2992 25.888 13.6059 25.5413 12.9992C25.1947 12.3752 24.718 11.8899 24.1113 11.5432C23.5047 11.1965 22.8287 11.0232 22.0833 11.0232C21.3207 11.0232 20.636 11.1965 20.0293 11.5432C19.4227 11.8899 18.946 12.3752 18.5993 12.9992C18.2527 13.6059 18.0793 14.2992 18.0793 15.0792C18.0793 15.8592 18.2527 16.5612 18.5993 17.1852C18.946 17.7919 19.4227 18.2685 20.0293 18.6152C20.636 18.9619 21.3207 19.1352 22.0833 19.1352C22.8287 19.1352 23.5047 18.9619 24.1113 18.6152C24.718 18.2685 25.1947 17.7919 25.5413 17.1852C25.888 16.5612 26.0613 15.8592 26.0613 15.0792Z" fill="#F3F3F9"/>
<path d="M0.0881348 19.3952C0.192135 19.2912 0.859468 18.4765 2.09014 16.9512C2.4368 17.3499 2.89613 17.7312 3.46814 18.0952C4.05747 18.4419 4.63813 18.6845 5.21013 18.8232C5.78214 18.9445 6.26747 19.0052 6.66614 19.0052C7.23814 19.0052 7.69747 18.9099 8.04414 18.7192C8.3908 18.5285 8.56414 18.2425 8.56414 17.8612C8.56414 17.5492 8.4428 17.3239 8.20014 17.1852C7.9748 17.0465 7.72347 16.9425 7.44614 16.8732C7.18613 16.8039 7.00413 16.7519 6.90014 16.7172C5.5308 16.3185 4.36947 15.9459 3.41614 15.5992C2.6708 15.3219 2.0728 14.8799 1.62213 14.2732C1.1888 13.6665 0.972135 12.9992 0.972135 12.2712C0.972135 12.1499 0.989468 11.9679 1.02413 11.7252C1.2148 10.4945 1.85614 9.61054 2.94813 9.07321C4.04014 8.51854 5.27947 8.24121 6.66614 8.24121C7.5848 8.24121 8.5208 8.37121 9.47414 8.63121C10.4448 8.87388 11.2508 9.20321 11.8921 9.61921L10.4361 12.5312C9.86414 12.2192 9.37014 11.9765 8.95414 11.8032C8.55547 11.6299 8.1048 11.4999 7.60214 11.4132C7.0648 11.3092 6.5968 11.2572 6.19813 11.2572C5.62613 11.2572 5.1928 11.3525 4.89813 11.5432C4.6208 11.7339 4.48213 11.9679 4.48213 12.2452C4.48213 12.5919 4.63813 12.8519 4.95013 13.0252C5.27947 13.1812 5.9468 13.3805 6.95213 13.6232C6.90013 13.6059 7.16013 13.6752 7.73213 13.8312C9.20547 14.2125 10.2715 14.6545 10.9301 15.1572C11.6061 15.6599 11.9961 16.3879 12.1001 17.3412C12.1175 17.4452 12.1261 17.5925 12.1261 17.7832C12.1261 18.4592 11.9441 19.0745 11.5801 19.6292C11.2335 20.1665 10.7481 20.6172 10.1241 20.9812C9.67347 21.2585 9.1188 21.4839 8.46014 21.6572C7.8188 21.8305 7.20347 21.9172 6.61414 21.9172C5.21013 21.9172 3.9448 21.7005 2.81814 21.2672C1.7088 20.8165 0.798801 20.1925 0.0881348 19.3952Z" fill="#F3F3F9"/>
<path d="M87.5941 2.1651V5.6571H86.8201V2.1651H85.4281V1.4571H88.9801V2.1651H87.5941ZM90.1673 2.8491V5.6571H89.3933V1.4571H90.1853L91.4933 3.7851L92.8013 1.4571H93.5933V5.6571H92.8193V2.8491L91.6973 4.7871H91.2893L90.1673 2.8491ZM94.3754 5.2731C94.3754 5.1491 94.4194 5.0431 94.5074 4.9551C94.5954 4.8631 94.7014 4.8171 94.8254 4.8171C94.9534 4.8171 95.0614 4.8611 95.1494 4.9491C95.2374 5.0371 95.2814 5.1451 95.2814 5.2731C95.2814 5.3971 95.2354 5.5031 95.1434 5.5911C95.0554 5.6791 94.9494 5.7231 94.8254 5.7231C94.7014 5.7231 94.5954 5.6791 94.5074 5.5911C94.4194 5.5031 94.3754 5.3971 94.3754 5.2731Z" fill="#F3F3F9"/>
</svg>
