<svg width="40" height="40" viewBox="0 0 40 40" fill="none" xmlns="http://www.w3.org/2000/svg">
<path d="M34.5625 16.75C34.5 16.625 34.5 16.4375 34.5625 16.3125L36.0625 13.375C36.5 12.4375 36.5 11.375 35.9375 10.4375C35.375 9.5625 34.4375 9 33.375 9H29.9375V7.75C29.9375 6 28.5625 4.625 26.8125 4.625H14.75C14.5625 4.25 14.125 4 13.6875 4C13 4 12.4375 4.5625 12.4375 5.25V21.625L4 30.0625C3.5 30.5625 3.5 31.3125 4 31.8125C4.5 32.3125 5.25 32.3125 5.75 31.8125L13.625 23.9375L25.25 35.5625C25.5 35.8125 25.8125 35.9375 26.125 35.9375C26.4375 35.9375 26.75 35.8125 27 35.5625C27.5 35.0625 27.5 34.3125 27 33.8125L25.125 31.875L27.4375 29.5625L30.3125 32.4375C30.8125 32.9375 31.5625 32.9375 32.0625 32.4375C32.5625 31.9375 32.5625 31.1875 32.0625 30.6875L28.3125 26.9375C27.8125 26.4375 27.0625 26.4375 26.5625 26.9375L23.375 30.125L14.9375 21.6875V19.6875H21.8125V20.3125C21.8125 23.0625 24.0625 24.0625 25.5625 24.0625H33.375C34.4375 24.0625 35.375 23.5625 35.9375 22.625C36.5 21.75 36.5625 20.625 36.0625 19.6875L34.5625 16.75ZM14.9375 7.1875H26.8125C27.125 7.1875 27.4375 7.4375 27.4375 7.8125V16.5625C27.4375 16.875 27.1875 17.1875 26.8125 17.1875H14.9375V7.1875ZM32.3125 17.875L33.8125 20.8125C33.9375 21 33.875 21.1875 33.8125 21.3125C33.75 21.375 33.625 21.5625 33.375 21.5625H26.0625L28.3125 19.3125C28.3125 19.3125 28.3125 19.25 28.375 19.25C29.3125 18.6875 29.9375 17.6875 29.9375 16.5625V11.5625H33.375C33.625 11.5625 33.75 11.6875 33.8125 11.8125C33.875 11.875 33.9375 12.0625 33.8125 12.3125L32.3125 15.25C31.875 16.0625 31.875 17.0625 32.3125 17.875Z" fill="white"/>
</svg>
