<svg width="24" height="24" viewBox="0 0 24 24" fill="none" xmlns="http://www.w3.org/2000/svg">
<path d="M13.2318 10.5114C13.0575 10.2305 12.7833 10.0188 12.4592 9.91504V7.08772H18.3054C18.398 7.08607 18.4881 7.05815 18.5641 7.00749C18.6401 6.95683 18.6986 6.88573 18.7322 6.80322C18.7658 6.72071 18.773 6.63051 18.7528 6.54409C18.7327 6.45767 18.6861 6.37892 18.619 6.31785L16.6358 4.54272L18.6189 2.76846C18.6862 2.70759 18.7329 2.62894 18.7532 2.54255C18.7734 2.45616 18.7663 2.36596 18.7326 2.28347C18.699 2.20098 18.6404 2.12995 18.5643 2.07946C18.4882 2.02897 18.398 2.0013 18.3054 2H12.0002C11.8776 2.00198 11.7606 2.05003 11.6747 2.13375C11.5888 2.21747 11.5409 2.33013 11.5412 2.44737V9.91504C11.2171 10.0188 10.9429 10.2305 10.7686 10.5115L4.0793 21.1861C4.02866 21.2674 4.00133 21.36 4.00005 21.4546C3.99877 21.5492 4.02359 21.6424 4.07201 21.7249C4.12043 21.8075 4.19074 21.8763 4.27587 21.9246C4.361 21.9729 4.45794 21.9989 4.55692 22H19.4435C19.5423 21.999 19.6391 21.9732 19.7241 21.9251C19.8091 21.877 19.8794 21.8083 19.9278 21.726C19.9762 21.6437 20.0011 21.5507 20 21.4563C19.9988 21.3619 19.9716 21.2695 19.9212 21.1883L13.2318 10.5114ZM12.4592 2.87719H17.1431L15.6504 4.21627C15.6044 4.25773 15.5679 4.30771 15.5429 4.36315C15.5179 4.41859 15.505 4.47832 15.505 4.53868C15.5049 4.59998 15.5178 4.66066 15.5428 4.71713C15.5677 4.77359 15.6043 4.82468 15.6504 4.86737L17.1431 6.21053H12.4592V2.87719ZM11.5562 10.962C11.6021 10.8887 11.6672 10.828 11.745 10.7858C11.8228 10.7437 11.9108 10.7215 12.0002 10.7215C12.0897 10.7215 12.1776 10.7437 12.2555 10.7858C12.3333 10.828 12.3983 10.8887 12.4443 10.962L15.4734 15.7958L15.3606 15.9428C15.2993 16.0226 15.2208 16.0887 15.1302 16.1368C15.0397 16.1848 14.9394 16.2136 14.8362 16.221C14.733 16.2285 14.6293 16.2146 14.5322 16.1802C14.4351 16.1458 14.347 16.0918 14.2738 16.0218C13.9668 15.7291 13.5509 15.5647 13.1172 15.5647C12.6835 15.5647 12.2675 15.7291 11.9605 16.0218C11.4998 16.462 10.8749 16.7094 10.2233 16.7094C9.57165 16.7094 8.94674 16.462 8.48597 16.0218L8.42309 15.9617L11.5562 10.962ZM5.19442 21.1228L7.93872 16.7391C8.57999 17.3018 9.42396 17.6059 10.2944 17.5881C11.1647 17.5702 11.9943 17.2317 12.6096 16.6432C12.7444 16.5147 12.927 16.4425 13.1174 16.4425C13.3078 16.4425 13.4904 16.5147 13.6251 16.6432C13.7806 16.7913 13.9655 16.908 14.169 16.9865C14.3725 17.0651 14.5905 17.1038 14.8099 17.1004C15.0294 17.097 15.2459 17.0516 15.4466 16.9668C15.6474 16.8821 15.8283 16.7597 15.9787 16.6069L18.8061 21.1228H5.19442Z" fill="white"/>
</svg>
