<svg width="20" height="21" viewBox="0 0 20 21" fill="none" xmlns="http://www.w3.org/2000/svg">
<g clip-path="url(#clip0_54815_302)">
<path d="M10 2.42236C12.6719 2.42236 12.9883 2.43408 14.0391 2.48096C15.0156 2.52393 15.543 2.68799 15.8945 2.82471C16.3594 3.00439 16.6953 3.22314 17.043 3.5708C17.3945 3.92236 17.6094 4.25439 17.7891 4.71924C17.9258 5.0708 18.0898 5.60205 18.1328 6.57471C18.1797 7.62939 18.1914 7.9458 18.1914 10.6138C18.1914 13.2856 18.1797 13.6021 18.1328 14.6528C18.0898 15.6294 17.9258 16.1567 17.7891 16.5083C17.6094 16.9731 17.3906 17.3091 17.043 17.6567C16.6914 18.0083 16.3594 18.2231 15.8945 18.4028C15.543 18.5396 15.0117 18.7036 14.0391 18.7466C12.9844 18.7935 12.668 18.8052 10 18.8052C7.32813 18.8052 7.01172 18.7935 5.96094 18.7466C4.98438 18.7036 4.45703 18.5396 4.10547 18.4028C3.64063 18.2231 3.30469 18.0044 2.95703 17.6567C2.60547 17.3052 2.39063 16.9731 2.21094 16.5083C2.07422 16.1567 1.91016 15.6255 1.86719 14.6528C1.82031 13.5981 1.80859 13.2817 1.80859 10.6138C1.80859 7.9419 1.82031 7.62549 1.86719 6.57471C1.91016 5.59814 2.07422 5.0708 2.21094 4.71924C2.39063 4.25439 2.60938 3.91846 2.95703 3.5708C3.30859 3.21924 3.64063 3.00439 4.10547 2.82471C4.45703 2.68799 4.98828 2.52393 5.96094 2.48096C7.01172 2.43408 7.32813 2.42236 10 2.42236ZM10 0.621582C7.28516 0.621582 6.94531 0.633301 5.87891 0.680176C4.81641 0.727051 4.08594 0.898926 3.45313 1.14502C2.79297 1.40283 2.23438 1.74268 1.67969 2.30127C1.12109 2.85596 0.78125 3.41455 0.523438 4.0708C0.277344 4.70752 0.105469 5.43408 0.0585938 6.49658C0.0117188 7.56689 0 7.90674 0 10.6216C0 13.3364 0.0117188 13.6763 0.0585938 14.7427C0.105469 15.8052 0.277344 16.5356 0.523438 17.1685C0.78125 17.8286 1.12109 18.3872 1.67969 18.9419C2.23438 19.4966 2.79297 19.8403 3.44922 20.0942C4.08594 20.3403 4.8125 20.5122 5.875 20.5591C6.94141 20.606 7.28125 20.6177 9.99609 20.6177C12.7109 20.6177 13.0508 20.606 14.1172 20.5591C15.1797 20.5122 15.9102 20.3403 16.543 20.0942C17.1992 19.8403 17.7578 19.4966 18.3125 18.9419C18.8672 18.3872 19.2109 17.8286 19.4648 17.1724C19.7109 16.5356 19.8828 15.8091 19.9297 14.7466C19.9766 13.6802 19.9883 13.3403 19.9883 10.6255C19.9883 7.91065 19.9766 7.5708 19.9297 6.5044C19.8828 5.44189 19.7109 4.71143 19.4648 4.07861C19.2188 3.41455 18.8789 2.85596 18.3203 2.30127C17.7656 1.74658 17.207 1.40283 16.5508 1.14893C15.9141 0.902832 15.1875 0.730957 14.125 0.684082C13.0547 0.633301 12.7148 0.621582 10 0.621582Z" fill="white"/>
<path d="M10 5.48486C7.16406 5.48486 4.86328 7.78564 4.86328 10.6216C4.86328 13.4575 7.16406 15.7583 10 15.7583C12.8359 15.7583 15.1367 13.4575 15.1367 10.6216C15.1367 7.78564 12.8359 5.48486 10 5.48486ZM10 13.9536C8.16016 13.9536 6.66797 12.4614 6.66797 10.6216C6.66797 8.78174 8.16016 7.28955 10 7.28955C11.8398 7.28955 13.332 8.78174 13.332 10.6216C13.332 12.4614 11.8398 13.9536 10 13.9536Z" fill="white"/>
<path d="M16.5391 5.28174C16.5391 5.9458 16 6.48096 15.3398 6.48096C14.6758 6.48096 14.1406 5.9419 14.1406 5.28174C14.1406 4.61768 14.6797 4.08252 15.3398 4.08252C16 4.08252 16.5391 4.62158 16.5391 5.28174Z" fill="white"/>
</g>
<defs>
<clipPath id="clip0_54815_302">
<rect width="20" height="20" fill="white" transform="translate(0 0.621582)"/>
</clipPath>
</defs>
</svg>
