<svg width="20" height="21" viewBox="0 0 20 21" fill="none" xmlns="http://www.w3.org/2000/svg">
<g clip-path="url(#clip0_54815_304)">
<path d="M14.7428 9.8912C14.6566 9.8499 14.5691 9.81017 14.4805 9.77211C14.3261 6.92764 12.7718 5.29919 10.162 5.28252C10.1502 5.28245 10.1385 5.28245 10.1266 5.28245C8.56564 5.28245 7.26738 5.94876 6.46831 7.16124L7.90362 8.14583C8.50056 7.24016 9.43739 7.04708 10.1273 7.04708C10.1353 7.04708 10.1433 7.04708 10.1512 7.04715C11.0105 7.05263 11.6589 7.30248 12.0786 7.78971C12.384 8.14443 12.5883 8.6346 12.6895 9.25323C11.9276 9.12374 11.1036 9.08393 10.2228 9.13443C7.7415 9.27735 6.14634 10.7245 6.25347 12.7353C6.30784 13.7553 6.81598 14.6328 7.68424 15.2061C8.41835 15.6906 9.36383 15.9276 10.3465 15.874C11.6441 15.8028 12.6622 15.3077 13.3724 14.4024C13.9117 13.7149 14.2529 12.824 14.4035 11.7014C15.022 12.0746 15.4803 12.5657 15.7334 13.1562C16.1638 14.1598 16.1889 15.8091 14.8432 17.1537C13.6641 18.3316 12.2468 18.8412 10.1049 18.8569C7.72895 18.8393 5.93204 18.0773 4.76373 16.5921C3.66971 15.2014 3.10432 13.1926 3.08322 10.6216C3.10432 8.05052 3.66971 6.04175 4.76373 4.65103C5.93204 3.16584 7.72892 2.40387 10.1049 2.38622C12.4981 2.40401 14.3263 3.16964 15.5393 4.662C16.1341 5.39383 16.5826 6.31417 16.8782 7.38724L18.5602 6.93848C18.2018 5.61764 17.638 4.47947 16.8707 3.53554C15.3156 1.62228 13.0412 0.64191 10.1108 0.621582H10.099C7.17452 0.641839 4.92561 1.62594 3.4148 3.54651C2.07038 5.25558 1.37689 7.63363 1.35359 10.6146L1.35352 10.6216L1.35359 10.6286C1.37689 13.6095 2.07038 15.9876 3.4148 17.6967C4.92561 19.6172 7.17452 20.6014 10.099 20.6216H10.1108C12.7108 20.6036 14.5435 19.9228 16.0533 18.4144C18.0286 16.441 17.9691 13.9673 17.3181 12.4488C16.851 11.3598 15.9605 10.4754 14.7428 9.8912ZM10.2536 14.1119C9.16607 14.1731 8.03627 13.685 7.98056 12.6395C7.93927 11.8643 8.53224 10.9993 10.3203 10.8962C10.5251 10.8844 10.726 10.8787 10.9234 10.8787C11.5729 10.8787 12.1805 10.9418 12.7329 11.0625C12.5268 13.6356 11.3183 14.0535 10.2536 14.1119Z" fill="#EA4335"/>
</g>
<defs>
<clipPath id="clip0_54815_304">
<rect width="20" height="20" fill="white" transform="translate(0 0.621582)"/>
</clipPath>
</defs>
</svg>
