<svg width="24" height="25" viewBox="0 0 24 25" fill="none" xmlns="http://www.w3.org/2000/svg">
<path fill-rule="evenodd" clip-rule="evenodd" d="M12 23.25C6.06294 23.25 1.25 18.4371 1.25 12.5C1.25 6.56294 6.06294 1.75 12 1.75C17.9371 1.75 22.75 6.56294 22.75 12.5C22.75 18.4371 17.9371 23.25 12 23.25ZM13.2841 7.74584C13.0018 7.17388 12.5598 6.75 11.9986 6.75C11.438 6.75 10.9946 7.17311 10.7097 7.74459L10.7093 7.74534L9.76811 9.64336L9.76667 9.64629C9.73804 9.70523 9.67012 9.78823 9.56843 9.86426C9.46693 9.94014 9.36877 9.98142 9.30628 9.99226L9.30574 9.99236L7.60118 10.2779C6.98455 10.3815 6.46905 10.6839 6.30236 11.2102C6.13616 11.735 6.38082 12.2807 6.82111 12.7246L8.14739 14.0618C8.19992 14.1148 8.25876 14.2146 8.29566 14.3446C8.33232 14.4737 8.33557 14.5912 8.31895 14.6672L8.31872 14.6683L7.93962 16.321C7.78186 17.0084 7.8366 17.6894 8.3215 18.0461C8.80845 18.4044 9.473 18.2485 10.0768 17.8873L11.6728 16.9346L11.6738 16.9341C11.7453 16.8924 11.8631 16.8604 12.0013 16.8604C12.1405 16.8604 12.2558 16.8929 12.3229 16.933L13.9221 17.8875C14.5266 18.2475 15.192 18.4061 15.6789 18.0482C16.1641 17.6916 16.2162 17.0093 16.059 16.3213L15.6798 14.6683L15.6796 14.6672C15.6629 14.5912 15.6662 14.4737 15.7028 14.3446C15.7397 14.2146 15.7986 14.1148 15.8511 14.0618L17.1764 12.7256L17.1769 12.7251C17.62 12.2812 17.8655 11.7351 17.6979 11.2095C17.5302 10.6835 17.0137 10.3815 16.3975 10.2779L14.6915 9.99215C14.626 9.98114 14.5264 9.93938 14.4246 9.8637C14.3228 9.78793 14.2551 9.70511 14.2265 9.64629L13.2841 7.74584Z" fill="#D33C1F"/>
</svg>
