<svg width="68" height="68" viewBox="0 0 68 68" fill="none" xmlns="http://www.w3.org/2000/svg">
<path d="M67.391 64.651L34.9134 2.33459C34.5074 1.62415 33.4925 1.62415 33.0865 2.33459L0.608904 64.651C0.304426 65.26 0.710396 66.1734 1.52234 66.1734H66.4776C67.188 66.1734 67.6955 65.3615 67.391 64.651ZM63.6358 62.3167L60.997 60.8958C60.4895 60.5913 59.8805 60.7943 59.5761 61.3018C59.2716 61.8092 59.4746 62.4182 59.982 62.7226L62.6208 64.245H4.26263C4.26263 64.0421 4.26263 63.9406 4.16114 63.7376C4.05965 63.5346 3.85666 63.4331 3.65368 63.3316L33.188 6.49579C33.391 6.69877 33.6955 6.90176 33.9999 6.90176C34.3044 6.90176 34.6089 6.69877 34.8119 6.49579L64.8537 64.1435H63.6358C63.8388 64.0421 63.9402 63.9406 64.0417 63.7376C64.2447 63.2301 64.1432 62.6212 63.6358 62.3167Z" fill="white"/>
<path d="M34 12.9906C34.6089 12.9906 35.0149 12.5847 35.0149 11.9757V8.93094C35.0149 8.32199 34.6089 7.91602 34 7.91602C33.391 7.91602 32.985 8.32199 32.985 8.93094V11.9757C32.985 12.5847 33.391 12.9906 34 12.9906ZM34 37.3489C34.6089 37.3489 35.0149 36.9429 35.0149 36.3339V33.2892C35.0149 32.6802 34.6089 32.2742 34 32.2742C33.391 32.2742 32.985 32.6802 32.985 33.2892V36.3339C32.985 36.9429 33.391 37.3489 34 37.3489ZM34 25.1697C34.6089 25.1697 35.0149 24.7638 35.0149 24.1548V21.11C35.0149 20.5011 34.6089 20.0951 34 20.0951C33.391 20.0951 32.985 20.5011 32.985 21.11V24.1548C32.985 24.7638 33.391 25.1697 34 25.1697ZM34 31.2593C34.6089 31.2593 35.0149 30.8533 35.0149 30.2444V27.1996C35.0149 26.5906 34.6089 26.1847 34 26.1847C33.391 26.1847 32.985 26.5906 32.985 27.1996V30.2444C32.985 30.8533 33.391 31.2593 34 31.2593ZM34 19.0802C34.6089 19.0802 35.0149 18.6742 35.0149 18.0653V15.0205C35.0149 14.4115 34.6089 14.0056 34 14.0056C33.391 14.0056 32.985 14.4115 32.985 15.0205V18.0653C32.985 18.6742 33.391 19.0802 34 19.0802ZM23.9522 51.2533L21.3134 52.7757C20.8059 53.0802 20.7044 53.6892 20.9074 54.1966C21.2119 54.7041 21.8208 54.8056 22.3283 54.6026L24.9671 53.0802C25.4746 52.7757 25.5761 52.1668 25.3731 51.6593C25.0686 51.1518 24.4597 50.9489 23.9522 51.2533ZM29.2298 48.2086L26.591 49.7309C26.0835 50.0354 25.982 50.6444 26.185 51.1518C26.4895 51.6593 27.0985 51.7608 27.6059 51.5578L30.2447 50.0354C30.7522 49.7309 30.8537 49.122 30.6507 48.6145C30.3462 48.1071 29.7373 47.9041 29.2298 48.2086ZM34 43.4384C34.6089 43.4384 35.0149 43.0324 35.0149 42.4235V39.3787C35.0149 38.7697 34.6089 38.3638 34 38.3638C33.391 38.3638 32.985 38.7697 32.985 39.3787V42.4235C32.985 43.0324 33.391 43.4384 34 43.4384ZM18.6746 54.1966L16.0358 55.719C15.5283 56.0235 15.4268 56.6324 15.6298 57.1399C15.9343 57.6474 16.5432 57.7489 17.0507 57.5459L19.6895 56.0235C20.197 55.719 20.2985 55.11 20.0955 54.6026C19.791 54.0951 19.182 53.9936 18.6746 54.1966ZM8.11935 60.2862L5.48055 61.8086C4.97309 62.113 4.87159 62.722 5.07458 63.2294C5.37906 63.7369 5.98801 63.8384 6.49547 63.6354L9.13428 62.113C9.64174 61.8086 9.74323 61.1996 9.54025 60.6921C9.23577 60.1847 8.52532 59.9817 8.11935 60.2862ZM13.397 57.2414L10.7582 58.7638C10.2507 59.0683 10.1492 59.6772 10.3522 60.1847C10.6567 60.6921 11.2656 60.7936 11.7731 60.5906L14.4119 59.0683C14.9194 58.7638 15.0208 58.1548 14.8179 57.6474C14.5134 57.1399 13.9044 56.9369 13.397 57.2414ZM47.7014 53.2832L45.0626 51.7608C44.5552 51.4563 43.9462 51.6593 43.6417 52.1668C43.3373 52.6742 43.5402 53.2832 44.0477 53.5877L46.6865 55.11C47.194 55.4145 47.8029 55.2115 48.1074 54.7041C48.4119 54.1966 48.2089 53.5877 47.7014 53.2832ZM42.4238 50.3399L39.785 48.8175C39.2776 48.513 38.6686 48.716 38.3641 49.2235C38.0597 49.7309 38.2626 50.3399 38.7701 50.6444L41.4089 52.1668C41.9164 52.4712 42.5253 52.2683 42.8298 51.7608C43.1343 51.2533 42.9313 50.6444 42.4238 50.3399ZM37.1462 47.2951L35.0149 46.0772V45.4683C35.0149 44.8593 34.6089 44.4533 34 44.4533C33.391 44.4533 32.985 44.8593 32.985 45.4683V46.0772L31.8686 46.6862C31.3611 46.9906 31.2597 47.5996 31.4626 48.1071C31.7671 48.6145 32.3761 48.716 32.8835 48.513L34 47.9041L36.1313 49.122C36.6388 49.4265 37.2477 49.2235 37.5522 48.716C37.7552 48.2086 37.6537 47.5996 37.1462 47.2951ZM52.9791 56.328L50.3402 54.8056C49.8328 54.5011 49.2238 54.7041 48.9194 55.2115C48.6149 55.719 48.8179 56.328 49.3253 56.6324L51.9641 58.1548C52.4716 58.4593 53.0805 58.2563 53.385 57.7489C53.6895 57.2414 53.4865 56.6324 52.9791 56.328ZM58.3582 59.3727L55.7194 57.8503C55.2119 57.5459 54.6029 57.7489 54.2985 58.2563C53.994 58.7638 54.197 59.3727 54.7044 59.6772L57.3432 61.1996C57.8507 61.5041 58.4597 61.3011 58.7641 60.7936C58.9671 60.2862 58.7641 59.5757 58.3582 59.3727Z" fill="white"/>
</svg>
