<svg width="20" height="21" viewBox="0 0 20 21" fill="none" xmlns="http://www.w3.org/2000/svg">
<path d="M18.5195 0.621582H1.47656C0.660156 0.621582 0 1.26611 0 2.06299V19.1763C0 19.9731 0.660156 20.6216 1.47656 20.6216H18.5195C19.3359 20.6216 20 19.9731 20 19.1802V2.06299C20 1.26611 19.3359 0.621582 18.5195 0.621582ZM5.93359 17.6645H2.96484V8.11767H5.93359V17.6645ZM4.44922 6.81689C3.49609 6.81689 2.72656 6.04736 2.72656 5.09814C2.72656 4.14893 3.49609 3.37939 4.44922 3.37939C5.39844 3.37939 6.16797 4.14893 6.16797 5.09814C6.16797 6.04346 5.39844 6.81689 4.44922 6.81689ZM17.043 17.6645H14.0781V13.0239C14.0781 11.9185 14.0586 10.4927 12.5352 10.4927C10.9922 10.4927 10.7578 11.6997 10.7578 12.9458V17.6645H7.79688V8.11767H10.6406V9.42236H10.6797C11.0742 8.67236 12.043 7.87939 13.4844 7.87939C16.4883 7.87939 17.043 9.85596 17.043 12.4263V17.6645V17.6645Z" fill="white"/>
</svg>
