<svg width="40" height="40" viewBox="0 0 40 40" fill="none" xmlns="http://www.w3.org/2000/svg">
<path d="M20 29.9995C16.7129 29.9902 13.4855 29.1197 10.6394 27.4748C7.79337 25.83 5.42795 23.4681 3.7788 20.6245C3.66909 20.4345 3.61133 20.2189 3.61133 19.9995C3.61133 19.7801 3.66909 19.5645 3.7788 19.3745C5.42108 16.525 7.78501 14.1584 10.6327 12.5129C13.4803 10.8673 16.7112 10.001 20 10.001C23.2889 10.001 26.5198 10.8673 29.3674 12.5129C32.2151 14.1584 34.579 16.525 36.2213 19.3745C36.331 19.5645 36.3888 19.7801 36.3888 19.9995C36.3888 20.2189 36.331 20.4345 36.2213 20.6245C34.5721 23.4681 32.2067 25.83 29.3607 27.4748C26.5146 29.1197 23.2872 29.9902 20 29.9995ZM6.3238 19.9995C7.78929 22.2984 9.81065 24.1908 12.2011 25.5018C14.5915 26.8128 17.2738 27.5 20 27.5C22.7263 27.5 25.4086 26.8128 27.799 25.5018C30.1894 24.1908 32.2108 22.2984 33.6763 19.9995C32.2108 17.7006 30.1894 15.8082 27.799 14.4972C25.4086 13.1863 22.7263 12.499 20 12.499C17.2738 12.499 14.5915 13.1863 12.2011 14.4972C9.81065 15.8082 7.78929 17.7006 6.3238 19.9995Z" fill="white"/>
<path d="M20 25C19.0111 25 18.0444 24.7068 17.2222 24.1574C16.3999 23.6079 15.759 22.827 15.3806 21.9134C15.0022 20.9998 14.9031 19.9945 15.0961 19.0246C15.289 18.0546 15.7652 17.1637 16.4645 16.4645C17.1637 15.7652 18.0546 15.289 19.0246 15.0961C19.9945 14.9031 20.9998 15.0022 21.9134 15.3806C22.827 15.759 23.6079 16.3999 24.1574 17.2222C24.7068 18.0444 25 19.0111 25 20C25 21.3261 24.4732 22.5979 23.5355 23.5355C22.5979 24.4732 21.3261 25 20 25ZM20 17.5C19.5055 17.5 19.0222 17.6466 18.6111 17.9213C18.2 18.196 17.8795 18.5865 17.6903 19.0433C17.5011 19.5001 17.4516 20.0028 17.548 20.4877C17.6445 20.9727 17.8826 21.4181 18.2322 21.7678C18.5819 22.1174 19.0273 22.3555 19.5123 22.452C19.9972 22.5484 20.4999 22.4989 20.9567 22.3097C21.4135 22.1205 21.804 21.8001 22.0787 21.3889C22.3534 20.9778 22.5 20.4945 22.5 20C22.5 19.337 22.2366 18.7011 21.7678 18.2322C21.2989 17.7634 20.663 17.5 20 17.5Z" fill="white"/>
</svg>
